<svg width="1440" height="868" viewBox="0 0 1440 868" fill="none" xmlns="http://www.w3.org/2000/svg">
<path d="M-2.99219 672.987L57.5495 664.467C118.091 655.947 239.174 638.907 360.258 662.952C481.341 686.808 602.424 751.939 723.508 776.552C844.591 801.165 965.674 785.261 1086.76 793.781C1207.84 802.301 1328.92 835.245 1389.47 851.528L1450.01 868V300H1389.47C1328.92 300 1207.84 300 1086.76 300C965.674 300 844.591 300 723.508 300C602.424 300 481.341 300 360.258 300C239.174 300 118.091 300 57.5495 300H-2.99219V672.987Z" fill="url(#paint0_linear_2201_11)"/>
<path d="M-81.9922 72.4854L-52.3033 73.3317C-22.7922 74.4601 36.5856 76.1529 95.7856 59.7901C154.986 43.4273 214.363 8.44479 273.563 1.39187C332.763 -5.66105 392.141 15.2156 451.341 38.6313C510.541 62.047 569.919 88.566 629.119 89.9766C688.319 91.3872 747.697 67.6894 806.897 54.712C866.097 41.4525 925.474 38.6313 984.674 45.12C1043.87 51.8908 1103.25 67.6894 1162.45 79.5383C1221.65 91.3872 1281.03 98.7223 1340.23 88.566C1399.43 78.1277 1458.81 49.916 1488.32 35.8102L1518.01 21.7043V301H1488.32C1458.81 301 1399.43 301 1340.23 301C1281.03 301 1221.65 301 1162.45 301C1103.25 301 1043.87 301 984.674 301C925.474 301 866.097 301 806.897 301C747.697 301 688.319 301 629.119 301C569.919 301 510.541 301 451.341 301C392.141 301 332.763 301 273.563 301C214.363 301 154.986 301 95.7856 301C36.5856 301 -22.7922 301 -52.3033 301H-81.9922V72.4854Z" fill="url(#paint1_linear_2201_11)"/>
<defs>
<linearGradient id="paint0_linear_2201_11" x1="-2.99219" y1="300" x2="1481.26" y2="430.411" gradientUnits="userSpaceOnUse">
<stop stop-color="#1D6FAA"/>
<stop offset="1" stop-color="#6CC8FA"/>
</linearGradient>
<linearGradient id="paint1_linear_2201_11" x1="1461.51" y1="37.0278" x2="-28.2744" y2="122.69" gradientUnits="userSpaceOnUse">
<stop stop-color="#6DCAFB"/>
<stop offset="1" stop-color="#1D6FAA"/>
</linearGradient>
</defs>
</svg>
