<svg width="1431" height="644" viewBox="0 0 1431 644" fill="none" xmlns="http://www.w3.org/2000/svg">
<path d="M-32 644L8.63889 642.235C49.2778 640.393 130.556 636.863 211.833 632.872C293.111 628.881 374.389 624.584 455.667 609.081C536.944 593.579 618.222 567.026 699.5 561.884C780.778 556.742 862.056 573.165 943.333 574.009C1024.61 574.93 1105.89 560.349 1187.17 562.267C1268.44 564.186 1349.72 582.605 1390.36 591.814L1431 601.023V479H1390.36C1349.72 479 1268.44 479 1187.17 479C1105.89 479 1024.61 479 943.333 479C862.056 479 780.778 479 699.5 479C618.222 479 536.944 479 455.667 479C374.389 479 293.111 479 211.833 479C130.556 479 49.2778 479 8.63889 479H-32V644Z" fill="url(#paint0_linear_2221_11)"/>
<path d="M-12 117.277L14.7757 118.646C41.391 120.472 94.9423 123.211 148.333 96.7368C201.724 70.2628 255.276 13.6632 308.667 2.25197C362.058 -9.15924 415.609 24.618 469 62.5032C522.391 100.388 575.942 143.295 629.333 145.577C682.724 147.859 736.276 109.517 789.667 88.5208C843.058 67.0677 896.609 62.5031 950 73.0014C1003.39 83.9562 1056.94 109.517 1110.33 128.688C1163.72 147.859 1217.28 159.727 1270.67 143.295C1324.06 126.406 1377.61 80.7611 1404.22 57.9387L1431 35.1163V487H1404.22C1377.61 487 1324.06 487 1270.67 487C1217.28 487 1163.72 487 1110.33 487C1056.94 487 1003.39 487 950 487C896.609 487 843.058 487 789.667 487C736.276 487 682.724 487 629.333 487C575.942 487 522.391 487 469 487C415.609 487 362.058 487 308.667 487C255.276 487 201.724 487 148.333 487C94.9423 487 41.391 487 14.7757 487H-12V117.277Z" fill="url(#paint1_linear_2221_11)"/>
<defs>
<linearGradient id="paint0_linear_2221_11" x1="1431" y1="479" x2="-23.6905" y2="600.346" gradientUnits="userSpaceOnUse">
<stop stop-color="#69C4F7"/>
<stop offset="1" stop-color="#2376B1"/>
</linearGradient>
<linearGradient id="paint1_linear_2221_11" x1="1465.51" y1="487" x2="187.342" y2="-198.389" gradientUnits="userSpaceOnUse">
<stop stop-color="#69C4F7"/>
<stop offset="1" stop-color="#2376B1"/>
</linearGradient>
</defs>
</svg>
