<svg width="390" height="276" viewBox="0 0 390 276" fill="none" xmlns="http://www.w3.org/2000/svg">
<path d="M-137 276L-119.583 275.243C-102.167 274.454 -67.3333 272.941 -32.5 271.231C2.33333 269.521 37.1667 267.679 72 261.035C106.833 254.391 141.667 243.011 176.5 240.807C211.333 238.604 246.167 245.642 281 246.004C315.833 246.399 350.667 240.149 385.5 240.972C420.333 241.794 455.167 249.688 472.583 253.634L490 257.581V205.286H472.583C455.167 205.286 420.333 205.286 385.5 205.286C350.667 205.286 315.833 205.286 281 205.286C246.167 205.286 211.333 205.286 176.5 205.286C141.667 205.286 106.833 205.286 72 205.286C37.1667 205.286 2.33333 205.286 -32.5 205.286C-67.3333 205.286 -102.167 205.286 -119.583 205.286H-137V276Z" fill="url(#paint0_linear_2221_12)"/>
<path d="M-128.429 50.2616L-116.953 50.8484C-105.547 51.6309 -82.5963 52.8046 -59.7144 41.4586C-36.8326 30.1126 -13.882 5.85564 8.99986 0.965128C31.8817 -3.92539 54.8323 10.5506 77.7142 26.7871C100.596 43.0236 123.547 61.412 146.428 62.3901C169.31 63.3682 192.261 46.936 215.143 37.9375C238.025 28.7433 260.975 26.7871 283.857 31.2863C306.739 35.9812 329.689 46.936 352.571 55.1521C375.453 63.3681 398.404 68.4543 421.286 61.4119C444.167 54.174 467.118 34.6119 478.525 24.8309L490 15.0498V208.714H478.525C467.118 208.714 444.167 208.714 421.286 208.714C398.404 208.714 375.453 208.714 352.571 208.714C329.689 208.714 306.739 208.714 283.857 208.714C260.975 208.714 238.025 208.714 215.143 208.714C192.261 208.714 169.31 208.714 146.428 208.714C123.547 208.714 100.596 208.714 77.7142 208.714C54.8323 208.714 31.8817 208.714 8.99986 208.714C-13.882 208.714 -36.8326 208.714 -59.7144 208.714C-82.5963 208.714 -105.547 208.714 -116.953 208.714H-128.429V50.2616Z" fill="url(#paint1_linear_2221_12)"/>
<defs>
<linearGradient id="paint0_linear_2221_12" x1="490" y1="205.286" x2="-133.439" y2="257.291" gradientUnits="userSpaceOnUse">
<stop stop-color="#69C4F7"/>
<stop offset="1" stop-color="#2376B1"/>
</linearGradient>
<linearGradient id="paint1_linear_2221_12" x1="504.789" y1="208.714" x2="-42.9966" y2="-85.0238" gradientUnits="userSpaceOnUse">
<stop stop-color="#69C4F7"/>
<stop offset="1" stop-color="#2376B1"/>
</linearGradient>
</defs>
</svg>
