<svg width="390" height="395" viewBox="0 0 390 395" fill="none" xmlns="http://www.w3.org/2000/svg">
<path d="M-254.055 306.209L-226.509 302.332C-198.962 298.456 -143.869 290.703 -88.7764 301.643C-33.6835 312.498 21.4094 342.132 76.5023 353.331C131.595 364.53 186.688 357.294 241.781 361.171C296.874 365.047 351.967 380.037 379.513 387.445L407.06 394.94V136.5H379.513C351.967 136.5 296.874 136.5 241.781 136.5C186.688 136.5 131.595 136.5 76.5023 136.5C21.4094 136.5 -33.6835 136.5 -88.7764 136.5C-143.869 136.5 -198.962 136.5 -226.509 136.5H-254.055V306.209Z" fill="url(#paint0_linear_2210_11)"/>
<path d="M-290 32.9808L-276.492 33.3659C-263.064 33.8794 -236.047 34.6496 -209.111 27.2045C-182.175 19.7594 -155.158 3.84238 -128.222 0.633302C-101.286 -2.57578 -74.2693 6.92311 -47.3333 17.5773C-20.3973 28.2314 6.61957 40.2976 33.5556 40.9394C60.4916 41.5812 87.5085 30.7987 114.444 24.894C141.38 18.8609 168.397 17.5772 195.333 20.5296C222.269 23.6103 249.286 30.7987 276.222 36.1899C303.158 41.5812 330.175 44.9186 357.111 40.2976C384.047 35.5481 411.064 22.7118 424.492 16.2936L438 9.87547V136.955H424.492C411.064 136.955 384.047 136.955 357.111 136.955C330.175 136.955 303.158 136.955 276.222 136.955C249.286 136.955 222.269 136.955 195.333 136.955C168.397 136.955 141.38 136.955 114.444 136.955C87.5085 136.955 60.4916 136.955 33.5556 136.955C6.61957 136.955 -20.3973 136.955 -47.3333 136.955C-74.2693 136.955 -101.286 136.955 -128.222 136.955C-155.158 136.955 -182.175 136.955 -209.111 136.955C-236.047 136.955 -263.064 136.955 -276.492 136.955H-290V32.9808Z" fill="url(#paint1_linear_2210_11)"/>
<defs>
<linearGradient id="paint0_linear_2210_11" x1="-254.055" y1="136.5" x2="421.281" y2="195.837" gradientUnits="userSpaceOnUse">
<stop stop-color="#1D6FAA"/>
<stop offset="1" stop-color="#6CC8FA"/>
</linearGradient>
<linearGradient id="paint1_linear_2210_11" x1="412.293" y1="16.8476" x2="-265.558" y2="55.824" gradientUnits="userSpaceOnUse">
<stop stop-color="#6DCAFB"/>
<stop offset="1" stop-color="#1D6FAA"/>
</linearGradient>
</defs>
</svg>
