<svg width="1440" height="618" viewBox="0 0 1440 618" fill="none" xmlns="http://www.w3.org/2000/svg">
<path d="M-11 809.303L49.5417 797.258C110.083 785.213 231.167 761.123 352.25 795.117C473.333 828.843 594.417 920.92 715.5 955.717C836.583 990.514 957.667 968.03 1078.75 980.075C1199.83 992.12 1320.92 1038.69 1381.46 1061.71L1442 1085V282H1381.46C1320.92 282 1199.83 282 1078.75 282C957.667 282 836.583 282 715.5 282C594.417 282 473.333 282 352.25 282C231.167 282 110.083 282 49.5417 282H-11V809.303Z" fill="url(#paint0_linear_2228_11)"/>
<path d="M-90 68.1507L-60.3111 68.9464C-30.8 70.0074 28.5778 71.5989 87.7778 56.2146C146.978 40.8303 206.356 7.93979 265.556 1.30864C324.756 -5.32251 384.133 14.3057 443.333 36.3211C502.533 58.3366 561.911 83.2697 621.111 84.596C680.311 85.9222 739.689 63.6415 798.889 51.4402C858.089 38.9736 917.467 36.3211 976.667 42.4218C1035.87 48.7877 1095.24 63.6415 1154.44 74.7818C1213.64 85.9222 1273.02 92.8186 1332.22 83.2697C1391.42 73.4556 1450.8 46.931 1480.31 33.6687L1510 20.4064V283H1480.31C1450.8 283 1391.42 283 1332.22 283C1273.02 283 1213.64 283 1154.44 283C1095.24 283 1035.87 283 976.667 283C917.467 283 858.089 283 798.889 283C739.689 283 680.311 283 621.111 283C561.911 283 502.533 283 443.333 283C384.133 283 324.756 283 265.556 283C206.356 283 146.978 283 87.7778 283C28.5778 283 -30.8 283 -60.3111 283H-90V68.1507Z" fill="url(#paint1_linear_2228_11)"/>
<defs>
<linearGradient id="paint0_linear_2228_11" x1="-11" y1="282" x2="1478.96" y2="374.6" gradientUnits="userSpaceOnUse">
<stop stop-color="#1D6FAA"/>
<stop offset="1" stop-color="#6CC8FA"/>
</linearGradient>
<linearGradient id="paint1_linear_2228_11" x1="1453.5" y1="34.8135" x2="-35.6381" y2="125.885" gradientUnits="userSpaceOnUse">
<stop stop-color="#6DCAFB"/>
<stop offset="1" stop-color="#1D6FAA"/>
</linearGradient>
</defs>
</svg>
