<svg width="390" height="330" viewBox="0 0 390 330" fill="none" xmlns="http://www.w3.org/2000/svg">
<path d="M657.914 113.3L622.74 118.25C587.567 123.2 517.219 133.1 446.871 119.13C376.524 105.27 306.176 67.43 235.828 53.13C165.48 38.83 95.1327 48.07 24.785 43.12C-45.5627 38.17 -115.91 19.03 -151.084 9.57L-186.258 -1.27647e-05L-186.258 330L-151.084 330C-115.91 330 -45.5627 330 24.785 330C95.1327 330 165.48 330 235.828 330C306.176 330 376.523 330 446.871 330C517.219 330 587.567 330 622.74 330L657.914 330L657.914 113.3Z" fill="url(#paint0_linear_1_916)"/>
<defs>
<linearGradient id="paint0_linear_1_916" x1="657.914" y1="330" x2="-204.417" y2="254.233" gradientUnits="userSpaceOnUse">
<stop stop-color="#1D6FAA"/>
<stop offset="1" stop-color="#6CC8FA"/>
</linearGradient>
</defs>
</svg>
