<svg width="28" height="28" viewBox="0 0 28 28" fill="none" xmlns="http://www.w3.org/2000/svg">
<path d="M18.368 15.785C18.027 15.4161 17.6441 15.0884 17.227 14.8085C18.909 13.5082 20.0878 11.6647 20.5625 9.59235C20.5981 9.44239 20.6037 9.28684 20.5789 9.13471C20.5541 8.98257 20.4994 8.83686 20.4179 8.706C20.3364 8.57513 20.2299 8.46171 20.1043 8.37227C19.9788 8.28284 19.8367 8.21917 19.6864 8.18495C19.5361 8.15073 19.3806 8.14663 19.2287 8.17289C19.0768 8.19916 18.9316 8.25526 18.8015 8.33796C18.6714 8.42066 18.559 8.52832 18.4708 8.65471C18.3826 8.78111 18.3202 8.92374 18.2875 9.07435C18.0667 10.0439 17.637 10.9536 17.0285 11.7401C16.42 12.5265 15.6472 13.1708 14.7641 13.6279V9.33569C14.7568 9.24999 14.7395 9.16543 14.7128 9.08369C14.7049 9.01615 14.6912 8.9494 14.672 8.88419C14.6222 8.77762 14.5565 8.67927 14.4771 8.59252C14.4561 8.56919 14.4456 8.53652 14.4235 8.51319C14.338 8.43432 14.2413 8.36865 14.1365 8.31835C14.1061 8.30202 14.084 8.27519 14.0525 8.26235C13.9633 8.23248 13.8708 8.21329 13.7771 8.20519C13.7191 8.18829 13.6598 8.1762 13.5998 8.16902L12.8368 8.16669H12.8333C12.56 8.16475 12.2947 8.25933 12.0843 8.43377C11.8738 8.60821 11.7317 8.85131 11.6829 9.12025C11.6341 9.3892 11.6818 9.66674 11.8175 9.90399C11.9533 10.1412 12.1684 10.323 12.425 10.4172V16.1222C10.5761 14.2032 9.35186 11.7692 8.91329 9.14085C8.86162 8.83577 8.69087 8.5637 8.4386 8.38451C8.18633 8.20532 7.87321 8.13368 7.56813 8.18535C7.26304 8.23703 6.99097 8.40778 6.81178 8.66005C6.63259 8.91231 6.56095 9.22543 6.61263 9.53052C7.29435 13.5937 9.56006 17.2205 12.9126 19.6152C12.9605 19.6437 13.0104 19.6686 13.062 19.6899C13.1026 19.7135 13.1447 19.7346 13.188 19.7529C13.318 19.8049 13.4563 19.833 13.5963 19.8357C13.768 19.8336 13.9371 19.7929 14.091 19.7167C14.1026 19.7109 14.1155 19.7144 14.1271 19.7085C14.2302 19.6545 14.3246 19.5853 14.4071 19.5032C14.4246 19.4869 14.4351 19.4682 14.4515 19.4507C14.5268 19.3681 14.5896 19.2749 14.6381 19.1742C14.6542 19.1411 14.6686 19.1072 14.6813 19.0727C14.7325 18.9441 14.7602 18.8074 14.763 18.669V16.1887C15.4864 16.4007 16.1382 16.8061 16.6483 17.3612L18.5698 19.4577C18.779 19.6857 19.0702 19.8213 19.3793 19.8347C19.6885 19.848 19.9903 19.738 20.2183 19.5289C20.4463 19.3197 20.5819 19.0285 20.5953 18.7193C20.6086 18.4102 20.4986 18.1084 20.2895 17.8804L18.368 15.785ZM17.5851 1.16669H10.4265C3.24329 1.16669 1.16663 3.24102 1.16663 10.4149V17.5735C1.16663 24.7567 3.24096 26.8334 10.4148 26.8334H17.5735C24.7566 26.8334 26.8333 24.759 26.8333 17.5852V10.4265C26.8333 3.24335 24.759 1.16669 17.5851 1.16669ZM24.5 17.5852C24.5 23.4652 23.464 24.5 17.5723 24.5H10.416C4.53479 24.5 3.49996 23.464 3.49996 17.5724V10.416C3.49996 4.53485 4.53596 3.50002 10.4276 3.50002H17.5851C23.4651 3.50002 24.5 4.53602 24.5 10.4277V17.5852Z" fill="white"/>
</svg>
