<svg width="28" height="29" viewBox="0 0 28 29" fill="none" xmlns="http://www.w3.org/2000/svg">
<path d="M9.09998 2.40179H18.9C22.6333 2.40179 25.6666 5.52412 25.6666 9.36697V19.4545C25.6666 21.3018 24.9537 23.0734 23.6847 24.3796C22.4157 25.6858 20.6946 26.4197 18.9 26.4197H9.09998C5.36665 26.4197 2.33331 23.2973 2.33331 19.4545V9.36697C2.33331 7.51969 3.04623 5.74807 4.31522 4.44185C5.58422 3.13562 7.30535 2.40179 9.09998 2.40179ZM8.86665 4.80358C7.75274 4.80358 6.68445 5.25906 5.8968 6.06982C5.10915 6.88058 4.66665 7.98021 4.66665 9.12679V19.6947C4.66665 22.0844 6.54498 24.0179 8.86665 24.0179H19.1333C20.2472 24.0179 21.3155 23.5624 22.1032 22.7516C22.8908 21.9409 23.3333 20.8412 23.3333 19.6947V9.12679C23.3333 6.73702 21.455 4.80358 19.1333 4.80358H8.86665ZM20.125 6.60492C20.5118 6.60492 20.8827 6.76307 21.1562 7.04459C21.4297 7.3261 21.5833 7.70791 21.5833 8.10604C21.5833 8.50416 21.4297 8.88597 21.1562 9.16748C20.8827 9.449 20.5118 9.60715 20.125 9.60715C19.7382 9.60715 19.3673 9.449 19.0938 9.16748C18.8203 8.88597 18.6666 8.50416 18.6666 8.10604C18.6666 7.70791 18.8203 7.3261 19.0938 7.04459C19.3673 6.76307 19.7382 6.60492 20.125 6.60492ZM14 8.40626C15.5471 8.40626 17.0308 9.03887 18.1248 10.1649C19.2187 11.291 19.8333 12.8182 19.8333 14.4107C19.8333 16.0032 19.2187 17.5305 18.1248 18.6565C17.0308 19.7826 15.5471 20.4152 14 20.4152C12.4529 20.4152 10.9692 19.7826 9.87519 18.6565C8.78123 17.5305 8.16665 16.0032 8.16665 14.4107C8.16665 12.8182 8.78123 11.291 9.87519 10.1649C10.9692 9.03887 12.4529 8.40626 14 8.40626ZM14 10.808C13.0717 10.808 12.1815 11.1876 11.5251 11.8632C10.8687 12.5389 10.5 13.4552 10.5 14.4107C10.5 15.3662 10.8687 16.2826 11.5251 16.9582C12.1815 17.6338 13.0717 18.0134 14 18.0134C14.9282 18.0134 15.8185 17.6338 16.4749 16.9582C17.1312 16.2826 17.5 15.3662 17.5 14.4107C17.5 13.4552 17.1312 12.5389 16.4749 11.8632C15.8185 11.1876 14.9282 10.808 14 10.808Z" fill="white"/>
</svg>
