<svg width="200" height="195" viewBox="0 0 200 195" fill="none" xmlns="http://www.w3.org/2000/svg">
<path fill-rule="evenodd" clip-rule="evenodd" d="M100.089 20.5451C158.952 30.433 200 64.0295 200 117.67C200 181.965 149.005 115.161 113.841 152.647C78.678 190.132 3.76184 191.195 0.178207 117.67C-3.17651 48.842 41.2267 10.6571 100.089 20.5451Z" fill="#50BEFF"/>
<path fill-rule="evenodd" clip-rule="evenodd" d="M70.0012 124.484L85.5719 104.343L85.9294 104.626C88.2289 106.433 90.0525 107.625 91.4002 108.2L91.799 108.369C98.2728 111.092 102.724 112.017 102.009 112.657L101.123 113.453C95.4012 118.618 87.5669 126.129 77.6199 135.987C76.2577 137.454 74.4222 138.396 72.4392 138.647L70.3879 138.892C50.2533 141.276 37.3359 141.482 32.6024 140.433C31.6139 140.214 28.5711 140.786 26.2738 143.094C22.8278 146.555 17.8999 154.893 17.0723 154.893C15.8692 154.893 17.0029 149.37 20.4734 138.325L20.8401 137.042C22.457 131.436 23.6201 128.122 24.3295 127.099C25.0915 126 27.6655 127.94 32.0513 132.919L31.9324 133.566C32.5016 132.906 33.1764 132.203 33.9568 131.458L36.029 131.21C43.3497 130.322 48.9143 129.509 52.7228 128.772L53.1238 128.693C57.25 127.876 62.8758 126.473 70.0012 124.484Z" fill="white"/>
<path fill-rule="evenodd" clip-rule="evenodd" d="M166.963 103.618L172.753 107.981C173.864 108.817 174.679 109.989 175.076 111.322L176.173 114.996C176.688 116.107 176.237 117.427 175.149 117.989L173.104 119.506C171.789 120.185 170.186 119.45 169.841 118.009L168.69 113.916C168.69 113.916 163.811 112.433 163.162 106.627L166.963 103.618Z" fill="white"/>
<path fill-rule="evenodd" clip-rule="evenodd" d="M139.059 31.9652C143.015 32.1261 145.003 37.5474 146.296 40.2272C146.737 41.1401 143.638 68.1203 142.625 75.0243C140.822 87.3194 135.373 91.2178 131.952 92.0548C131.952 92.0548 132.157 106.033 130.724 109.512C127.552 117.216 87.3904 112.045 83.4655 99.1697C80.7823 90.3677 90.7534 89.3418 94.4958 84.0348C101.355 74.3087 101.71 65.2567 109.099 58.7811C111.899 55.7127 115.149 52.6328 117.953 48.9294L119.094 47.4285C126.225 38.0858 131.655 31.8871 138.687 31.9558L139.059 31.9652Z" fill="white"/>
<path fill-rule="evenodd" clip-rule="evenodd" d="M119.224 55.3505C118.569 55.6664 117.61 55.7645 117.269 55.1226C116.196 53.1075 112.914 52.8304 111.519 54.6373C112.858 54.177 114.418 53.7378 115.615 54.4938C115.948 54.7041 116.236 54.999 116.521 55.2908C116.995 55.7769 117.461 56.2544 118.115 56.3185C118.6 56.3661 119.063 56.1616 119.523 55.9581C120.017 55.7397 120.508 55.5225 121.023 55.6193C121.595 55.7268 121.995 56.1815 122.396 56.6363C122.796 57.0898 123.196 57.5434 123.765 57.6533C124.231 57.7432 124.699 57.5761 125.163 57.4105C125.682 57.2253 126.195 57.0421 126.694 57.2219C127.289 57.4366 127.562 58.0505 127.834 58.6649C128.105 59.2762 128.377 59.8879 128.967 60.108C129.316 60.2384 129.694 60.1911 130.067 60.1184L130.437 60.0428C131.308 59.8695 132.249 59.8539 133.046 60.2462C133.731 60.5832 134.271 61.281 134.315 62.0257C134.333 61.865 134.349 61.7046 134.362 61.5446L134.5 60.6378C133.71 59.7103 132.468 59.1852 131.251 59.266C131.043 59.2799 130.834 59.3104 130.626 59.3408C130.225 59.3994 129.826 59.4578 129.428 59.3973C128.823 59.3053 128.209 58.7911 128.311 58.1887L128.321 58.1237C128.431 57.1149 127.079 56.5362 126.04 56.6212C125.82 56.6392 125.593 56.6686 125.366 56.6982C124.5 56.8107 123.614 56.9258 122.933 56.4277C122.67 56.2353 122.467 55.9659 122.266 55.6991C121.985 55.3258 121.707 54.9575 121.275 54.8124C120.798 54.652 120.312 54.8201 119.841 55.0436L119.685 55.1198L119.224 55.3505ZM111.688 62.3669C112.139 62.9721 113.067 62.6331 113.784 62.3714L113.821 62.3578C115.743 61.6567 118.058 62.2038 119.462 63.6907C120.232 64.506 121.372 64.2781 122.551 64.0422C123.537 63.8451 124.55 63.6424 125.4 64.0377C125.797 64.2226 126.166 64.5352 126.527 64.8415C127.189 65.4028 127.827 65.943 128.569 65.6372C129.976 65.0573 131.704 65.3666 132.834 66.3815L132.83 66.7013L132.825 67.4066C131.702 66.2814 129.883 65.9169 128.413 66.5227C127.67 66.8285 127.033 66.2883 126.371 65.727C126.01 65.4206 125.641 65.108 125.244 64.9232C124.394 64.5279 123.381 64.7306 122.395 64.9277C121.216 65.1636 120.076 65.3915 119.306 64.5762C117.93 63.119 115.679 62.5645 113.781 63.2027L113.402 63.3385C112.726 63.5781 111.936 63.7957 111.532 63.2524C110.255 61.5384 107.69 60.9376 105.785 61.9058L106.031 60.9759L106.144 60.9242C108.025 60.0956 110.456 60.7131 111.688 62.3669ZM107.313 70.0098C106.607 70.2988 105.692 70.6732 105.218 70.0858C104.355 69.0155 102.383 68.9375 99.3022 69.8516C99.5377 70.0115 100.145 69.9957 100.895 69.9763C102.306 69.9396 104.22 69.8898 105.096 70.9766C105.522 71.504 106.302 71.2562 106.968 70.9909L107.342 70.8406C109.214 70.13 111.485 70.5977 112.916 72.001C113.717 72.7861 114.847 72.5146 116.016 72.2336C116.993 71.9989 117.998 71.7574 118.863 72.1198C119.267 72.2892 119.647 72.5874 120.02 72.8797C120.703 73.4152 121.361 73.9305 122.091 73.5964L122.192 73.5518C123.019 73.2028 124.608 73.7911 126.048 74.3243C127.096 74.7122 128.065 75.071 128.605 75.0185C125.266 73.0542 123.135 72.2833 122.213 72.7056L122.139 72.7364C121.438 73.005 120.802 72.5063 120.142 71.9889C119.769 71.6966 119.389 71.3984 118.985 71.229C118.12 70.8666 117.115 71.108 116.138 71.3428C114.969 71.6238 113.839 71.8952 113.038 71.1102C111.578 69.6782 109.243 69.2204 107.35 69.9948L107.313 70.0098ZM113.858 102.44C114.704 102.983 115.801 103.687 116.585 103.301C117.969 102.618 120.462 103.224 124.066 105.117L124.413 105.302C124.06 105.367 123.267 105.123 122.289 104.822C120.447 104.256 117.949 103.488 116.5 104.203C115.796 104.55 114.84 104.018 114.039 103.512L113.591 103.227C111.476 101.929 108.619 101.491 106.405 102.104C105.695 102.399 104.706 102.053 103.62 101.673C102.881 101.414 102.097 101.14 101.325 101.041C100.373 100.919 99.8822 100.992 99.4517 101.056C99.0197 101.121 98.6481 101.177 97.931 101.016C97.3766 100.892 96.4907 100.505 95.2732 99.8539C93.1149 98.8177 89.2905 98.9433 87.2776 99.6635L87.1689 99.7009C85.0171 100.412 85.0351 99.6328 87.1989 98.8214L87.3631 98.7612L87.4924 98.7166C89.792 97.9509 94.0511 98.0345 96.2799 99.4642L96.324 99.4925C97.1709 100.036 98.2679 100.74 99.0515 100.354L99.1093 100.328C99.6575 100.102 100.94 100.106 101.337 100.133L101.41 100.139C102.749 100.287 103.039 100.408 103.358 100.64L103.585 100.813L103.716 100.863C104.199 101.051 104.712 101.274 105.255 101.531C105.479 101.511 105.737 101.452 106.042 101.343L106.171 101.298C108.471 100.533 111.585 100.982 113.813 102.411L113.858 102.44ZM103.895 76.7512C104.396 77.3387 105.364 76.9643 106.111 76.6753L106.149 76.6602C108.152 75.8859 110.622 76.3437 112.168 77.7756C113.015 78.5607 114.21 78.2893 115.447 78.0083C116.481 77.7735 117.544 77.5321 118.458 77.8944C118.886 78.0639 119.288 78.3621 119.683 78.6543C120.381 79.1718 121.054 79.6705 121.796 79.4019L121.873 79.3711C122.85 78.9487 125.104 79.7196 128.636 81.6839C128.065 81.7364 127.04 81.3777 125.931 80.9897C124.408 80.4565 122.727 79.8682 121.852 80.2173L121.744 80.2619C120.972 80.5959 120.276 80.0806 119.554 79.5451C119.159 79.2529 118.757 78.9547 118.329 78.7852C117.415 78.4229 116.352 78.6643 115.318 78.8991C114.081 79.1801 112.886 79.4515 112.038 78.6664C110.524 77.2632 108.122 76.7954 106.141 77.5061L105.746 77.6563C105.041 77.9216 104.216 78.1694 103.766 77.6421C102.838 76.5553 100.814 76.6051 99.3205 76.6417H99.3205C98.5278 76.6612 97.885 76.677 97.6358 76.5171C100.895 75.603 102.982 75.681 103.895 76.7512ZM103.385 84.0093C102.526 84.2983 101.412 84.6727 100.836 84.0852C99.7851 83.015 97.3848 82.937 93.6346 83.8511C93.9213 84.011 94.6609 83.9952 95.5729 83.9757C97.2907 83.939 99.6204 83.8893 100.687 84.9761C101.205 85.5034 102.155 85.2556 102.966 84.9903L103.42 84.8401C105.699 84.1294 108.463 84.5972 110.205 86.0004C111.18 86.7855 112.555 86.5141 113.979 86.2331C115.168 85.9983 116.391 85.7569 117.443 86.1193C117.935 86.2887 118.398 86.5869 118.852 86.8791C119.683 87.4146 120.484 87.93 121.372 87.5959L121.496 87.5513C122.503 87.2022 124.437 87.7905 126.19 88.3237L126.19 88.3238C127.465 88.7117 128.644 89.0705 129.301 89.0179C125.237 87.0537 122.644 86.2827 121.521 86.7051L121.431 86.7359C120.578 87.0045 119.804 86.5058 119 85.9883C118.547 85.6961 118.084 85.3979 117.592 85.2284C116.54 84.8661 115.317 85.1075 114.127 85.3423C112.704 85.6233 111.328 85.8947 110.354 85.1096C108.576 83.6777 105.734 83.2199 103.43 83.9942L103.385 84.0093ZM96.7106 89.7528C97.3574 90.3403 98.6059 89.9659 99.5698 89.6769L99.6199 89.6618C102.204 88.8875 105.392 89.3453 107.385 90.7772C108.478 91.5623 110.02 91.2909 111.617 91.0099C112.951 90.7751 114.323 90.5337 115.502 90.896C116.054 91.0655 116.573 91.3637 117.082 91.6559C117.984 92.1734 118.852 92.6721 119.809 92.4035L119.909 92.3727C121.168 91.9503 124.077 92.7213 128.635 94.6856C127.898 94.7381 126.575 94.3793 125.145 93.9914L125.145 93.9914C123.179 93.4581 121.01 92.8698 119.881 93.2189L119.742 93.2635C118.746 93.5976 117.848 93.0822 116.916 92.5467C116.407 92.2545 115.887 91.9563 115.336 91.7869C114.156 91.4245 112.784 91.6659 111.45 91.9007C109.854 92.1817 108.312 92.4531 107.219 91.6681C105.265 90.2648 102.165 89.797 99.6091 90.5077L99.0995 90.6579C98.1902 90.9232 97.1246 91.171 96.544 90.6437C95.3476 89.5569 92.735 89.6067 90.8084 89.6433C89.7855 89.6628 88.9561 89.6786 88.6346 89.5187C92.8404 88.6046 95.5324 88.6826 96.7106 89.7528ZM96.57 94.6769C95.6061 94.9659 94.3575 95.3403 93.7108 94.7528C92.5326 93.6826 89.8406 93.6046 85.6348 94.5187C85.9563 94.6786 86.7857 94.6628 87.8085 94.6433C89.7351 94.6067 92.3478 94.5569 93.5442 95.6437C94.1248 96.171 95.1904 95.9232 96.0997 95.6579L96.6093 95.5077C99 94.8429 101.867 95.2093 103.827 96.4081C104.428 96.8878 105.473 96.8278 106.622 96.7618C107.404 96.7169 108.233 96.6692 109.003 96.7868C109.952 96.9319 110.403 97.1376 110.799 97.3181C111.196 97.4993 111.538 97.6551 112.272 97.6986C113.122 97.7491 115.147 97.3138 115.147 97.3138C117.507 96.9127 121.149 98.0876 122.885 99.3347L122.98 99.4006C124.898 100.709 125.058 99.8848 123.052 98.4439L122.94 98.3653C120.941 96.9954 116.823 95.9018 114.287 96.6618L114.237 96.6768C113.273 96.9659 112.024 97.3403 111.377 96.7528C110.927 96.3433 109.453 95.9445 109.169 95.896C107.668 95.64 107.464 95.7202 107.009 95.8993L107.008 95.8994C106.972 95.9138 106.933 95.9289 106.893 95.9445L106.754 95.9567C106.237 96.0046 105.682 96.0772 105.09 96.175C104.88 96.0939 104.648 95.9661 104.385 95.7772L104.273 95.6987C102.274 94.3288 99.1567 93.9018 96.6201 94.6618L96.57 94.6769Z" fill="#FFB61D"/>
<path fill-rule="evenodd" clip-rule="evenodd" d="M137.782 36.0229C143.406 36.0423 147.844 40.8133 147.465 46.43C147.465 46.43 140.907 74.9597 144.231 85.1003C145.517 89.0234 164.083 101.231 163.298 102.485L160.678 108.763C159.747 110.248 131.251 91.187 131.251 91.187C128.517 89.0168 128.009 45.8691 128.009 45.8691C127.955 40.435 132.353 36.0038 137.782 36.0229Z" fill="white"/>
<path d="M167.299 103.619L163.951 110.514L163.884 110.699C163.605 111.413 162.54 111.85 162.403 111.886L162.383 111.885L160.405 110.715C160.179 110.525 160.055 109.457 160.294 108.464L160.35 108.256C160.35 108.256 161.918 102.748 163.217 101.357C163.974 100.546 168.348 101.357 167.299 103.619Z" fill="white"/>
<path fill-rule="evenodd" clip-rule="evenodd" d="M119.593 167.21H111.599C111.599 167.21 120.981 142.849 120.981 136.457C120.981 134.474 113.606 137.461 114.676 134.474C116.147 130.367 121.238 123.021 119.984 119.334C118.673 115.478 113.781 114.08 109.522 112.518C108.705 112.218 123.595 113.252 127.679 110.004C133.066 105.718 128.692 96.2544 130.139 99.5913C131.885 103.617 143.227 113.717 140.979 124.654C138.788 135.309 119.593 167.21 119.593 167.21Z" fill="white"/>
<path fill-rule="evenodd" clip-rule="evenodd" d="M116.821 171.909L116.116 171.674C116.033 171.647 116.022 171.533 116.099 171.492L116.777 171.123V170.262C116.777 170.176 116.879 170.13 116.943 170.187L117.505 170.68L118.424 170.196C118.512 170.15 118.606 170.246 118.559 170.332L118.033 171.291L119.06 172.364C119.131 172.438 119.059 172.558 118.96 172.529L117.547 172.122L117.008 173.071C116.958 173.161 116.821 173.125 116.821 173.022V172.655V171.909Z" fill="#FFB61D"/>
<ellipse cx="156.334" cy="27.6674" rx="2.33333" ry="2.33333" fill="#FFB61D"/>
<path fill-rule="evenodd" clip-rule="evenodd" d="M122.948 48.4364L123.216 48.8504L123.305 48.9841C123.867 49.809 124.722 50.6199 125.672 50.3796C128.2 49.7398 131.076 50.8564 132.51 53.0343C133.219 54.1111 134.793 53.8999 136.08 53.6241L136.25 53.587C137.541 53.3009 139.326 53.4355 139.652 54.6864L139.669 54.7584C139.819 55.4784 140.726 55.6974 141.472 55.6784L141.703 55.67C143.58 55.67 143.825 56.7019 143.826 56.5959C143.826 56.5959 139.7 56.2833 138.832 54.8839L138.779 54.7949C138.226 53.8264 136.83 53.984 135.737 54.3133L135.437 54.4073L135.286 54.4511C134.22 54.7498 132.926 54.858 132.391 53.9378C131.162 51.8266 128.604 50.572 126.182 50.8933C125.559 50.9759 124.912 51.151 124.315 50.9533C122.887 50.4805 122.701 48.2755 121.296 47.738C119.523 47.0597 117.806 49.6367 115.971 49.1502C117.087 48.2989 118.324 47.6066 119.634 47.1007C120.073 46.9312 120.539 46.7803 121.006 46.8369C121.871 46.9417 122.452 47.6853 122.948 48.4364ZM145.473 50.9787C145.296 51.5237 145.166 52.0079 145.079 52.4186C144.899 51.2348 143.723 50.1402 142.614 50.5235L142.55 50.5473C141.846 50.8277 141.1 50.2456 140.645 49.64L140.536 49.4927L140.372 49.2672C140.004 48.7646 139.608 48.2688 139.019 48.1257C137.941 47.864 136.99 48.9365 135.889 49.0645C133.341 49.3607 132.067 44.7985 129.565 45.3646C129.018 45.4884 128.545 45.8632 127.989 45.9392C126.455 46.1487 125.632 44.1979 124.339 43.346C123.366 42.7048 121.992 42.7436 121.057 43.4387C121.104 42.3247 122.62 41.8338 123.654 42.2529C124.688 42.6721 125.398 43.6144 126.257 44.3266C127.094 45.021 128.337 45.498 129.249 44.9329L129.318 44.8874C130.415 44.1281 131.882 45.0912 132.739 46.1139L133.05 46.4866C133.832 47.4173 134.726 48.3842 135.898 48.295C136.974 48.213 137.891 47.21 138.958 47.3704C140.514 47.6042 141.15 50.1114 142.714 49.9417C143.719 49.8327 144.765 50.1702 145.517 50.8464L145.473 50.9787ZM146.28 45.7336C146.029 46.0854 145.777 46.368 145.525 46.5813L145.441 46.6499L145.23 46.4995C144.207 45.7728 143.09 45.0656 141.846 45.0949C141.392 45.1056 140.927 45.2153 140.491 45.0873C139.333 44.7476 139.059 42.9923 137.891 42.6891C136.736 42.3892 135.627 43.757 134.475 43.4446C133.692 43.2322 133.326 42.3676 132.892 41.6819C132.471 41.0148 131.582 40.4127 130.948 40.8432L130.895 40.8815C130.015 41.5755 128.695 41.1371 127.808 40.4508C126.922 39.7645 126.17 38.8394 125.106 38.4863C125.664 37.9348 126.633 38.335 127.174 38.904C127.715 39.473 128.155 40.2228 128.907 40.4504C130.058 40.7992 131.356 39.7296 132.443 40.2456C133.119 40.5666 133.394 41.3593 133.798 41.9885C134.203 42.6177 135.084 43.1451 135.658 42.666C137.053 41.5033 139.545 42.2403 140.082 43.9744C140.238 44.4774 140.908 44.5945 141.425 44.4934C141.942 44.3924 142.474 44.1669 142.976 44.3252C143.615 44.5265 143.943 45.2697 144.558 45.5339C145.199 45.8088 145.965 45.4593 146.393 44.906L146.436 44.8481C146.781 44.3652 146.62 45.2581 146.28 45.7336Z" fill="#FFB61D"/>
<path fill-rule="evenodd" clip-rule="evenodd" d="M132.861 58.9586L133.054 59.0152C133.313 59.0941 133.507 59.2106 133.734 59.4026L133.846 59.5012L133.989 59.6309C134.058 59.6937 134.112 59.7408 134.167 59.786C134.545 60.0957 134.973 60.2879 135.687 60.4013C136.166 60.4773 136.503 60.4012 137.085 60.13L137.295 60.0299C138.236 59.5759 138.782 59.4495 139.664 59.6522C140.418 59.8254 140.764 60.117 141.045 60.6657L141.116 60.8112C141.251 61.0923 141.685 61.352 142.028 61.557C142.285 61.7107 142.49 61.8336 142.48 61.9117C142.455 62.0942 140.865 61.7993 140.549 61.168L140.48 61.0264C140.275 60.6025 140.087 60.4334 139.515 60.3019C138.844 60.1478 138.438 60.2284 137.689 60.5806L137.479 60.681C136.719 61.0461 136.254 61.1664 135.582 61.0597C134.751 60.9278 134.214 60.6863 133.744 60.3016C133.712 60.2749 133.68 60.248 133.647 60.2192L133.368 59.9675C133.172 59.7932 133.039 59.7076 132.859 59.6528L132.749 59.6195C132.284 59.4832 131.219 59.8368 130.443 60.0946C129.956 60.2562 129.583 60.3801 129.542 60.3219C129.455 60.1961 131.935 58.7095 132.861 58.9586ZM132.748 64.0254L132.927 64.0751C133.167 64.1445 133.347 64.2468 133.557 64.4156L133.661 64.5022L133.794 64.6162C133.858 64.6713 133.908 64.7128 133.959 64.7525C134.309 65.0247 134.706 65.1935 135.368 65.2932C135.812 65.36 136.125 65.2931 136.665 65.0548L136.859 64.9668C137.732 64.5679 138.239 64.4567 139.057 64.6349C139.755 64.7871 140.076 65.0433 140.337 65.5255L140.403 65.6534C140.528 65.9004 140.931 66.1287 141.249 66.3088C141.487 66.4438 141.678 66.5518 141.668 66.6205C141.645 66.7808 140.17 66.5217 139.877 65.9669L139.813 65.8425C139.623 65.47 139.448 65.3214 138.918 65.2059C138.296 65.0704 137.919 65.1412 137.225 65.4507L137.03 65.539C136.326 65.8599 135.894 65.9656 135.271 65.8718C134.501 65.7558 134.002 65.5436 133.567 65.2056C133.537 65.1821 133.507 65.1585 133.476 65.1332L133.218 64.912C133.036 64.7588 132.913 64.6836 132.746 64.6354L132.644 64.6062C132.213 64.4864 131.225 64.7972 130.505 65.0237L130.505 65.0237L130.505 65.0237C130.054 65.1657 129.708 65.2746 129.67 65.2234C129.589 65.1128 131.888 63.8065 132.748 64.0254ZM133.079 69.408L132.91 69.3583C132.098 69.1394 129.926 70.4458 130.003 70.5563C130.038 70.6075 130.365 70.4986 130.792 70.3566C131.471 70.1301 132.404 69.8193 132.811 69.9391L132.908 69.9684C133.065 70.0165 133.182 70.0917 133.353 70.2449L133.598 70.4661C133.627 70.4914 133.655 70.515 133.683 70.5385C134.094 70.8766 134.565 71.0888 135.293 71.2047C135.881 71.2985 136.289 71.1928 136.954 70.8719L137.138 70.7836C137.794 70.4742 138.15 70.4033 138.737 70.5388C139.238 70.6543 139.402 70.803 139.582 71.1755L139.642 71.2999C139.919 71.8546 141.312 72.1138 141.334 71.9534C141.343 71.8848 141.163 71.7768 140.938 71.6418C140.638 71.4616 140.257 71.2334 140.14 70.9863L140.077 70.8585C139.831 70.3762 139.528 70.12 138.868 69.9678C138.096 69.7897 137.617 69.9008 136.793 70.2997L136.609 70.3877C136.099 70.626 135.804 70.6929 135.384 70.6261C134.759 70.5265 134.384 70.3576 134.053 70.0854C134.005 70.0457 133.958 70.0043 133.897 69.9491L133.772 69.8352L133.674 69.7485C133.476 69.5798 133.305 69.4774 133.079 69.408ZM132.91 75.6918L133.079 75.7415C133.305 75.8109 133.476 75.9132 133.674 76.082L133.772 76.1686L133.897 76.2826C133.958 76.3377 134.005 76.3791 134.053 76.4189C134.384 76.691 134.759 76.8599 135.384 76.9596C135.804 77.0264 136.099 76.9594 136.609 76.7212L136.793 76.6331C137.617 76.2343 138.096 76.1231 138.868 76.3013C139.528 76.4534 139.831 76.7097 140.077 77.1919L140.14 77.3198C140.257 77.5668 140.638 77.7951 140.938 77.9752C141.163 78.1102 141.343 78.2182 141.334 78.2869C141.312 78.4472 139.919 78.1881 139.642 77.6333L139.582 77.5089C139.402 77.1364 139.238 76.9877 138.737 76.8722C138.15 76.7368 137.794 76.8076 137.138 77.1171L136.954 77.2054C136.289 77.5262 135.881 77.632 135.293 77.5382C134.565 77.4222 134.094 77.21 133.683 76.8719C133.655 76.8485 133.627 76.8249 133.598 76.7995L133.353 76.5783C133.182 76.4252 133.065 76.35 132.908 76.3018L132.811 76.2726C132.404 76.1528 131.471 76.4635 130.792 76.69L130.792 76.69C130.365 76.8321 130.038 76.941 130.003 76.8898C129.926 76.7792 132.098 75.4729 132.91 75.6918ZM133.593 82.074L133.414 82.0243C132.554 81.8054 130.255 83.1118 130.336 83.2223C130.374 83.2735 130.72 83.1646 131.171 83.0226L131.171 83.0226C131.891 82.7961 132.878 82.4854 133.31 82.6051L133.412 82.6344C133.579 82.6826 133.702 82.7578 133.884 82.9109L134.142 83.1321C134.173 83.1575 134.202 83.181 134.233 83.2045C134.668 83.5426 135.166 83.7548 135.937 83.8707C136.56 83.9645 136.992 83.8588 137.696 83.538L137.891 83.4497C138.585 83.1402 138.962 83.0693 139.584 83.2048C140.114 83.3203 140.288 83.469 140.479 83.8415L140.543 83.9659C140.836 84.5206 142.311 84.7798 142.333 84.6195C142.343 84.5508 142.153 84.4428 141.914 84.3078C141.596 84.1276 141.194 83.8994 141.069 83.6523L141.003 83.5245C140.742 83.0423 140.421 82.786 139.722 82.6338C138.905 82.4557 138.398 82.5668 137.525 82.9657L137.331 83.0537C136.791 83.292 136.478 83.3589 136.034 83.2921C135.372 83.1925 134.975 83.0236 134.625 82.7514C134.573 82.7117 134.523 82.6703 134.459 82.6152L134.327 82.5012L134.223 82.4145C134.013 82.2458 133.832 82.1434 133.593 82.074ZM135.232 87.8847L135.416 87.9026C135.665 87.9293 135.86 87.9987 136.097 88.1284L136.214 88.1956L136.364 88.285C136.437 88.3281 136.493 88.3602 136.55 88.3905C136.943 88.5977 137.363 88.6951 138.032 88.6782C138.481 88.6669 138.778 88.5466 139.268 88.2182L139.444 88.0978C140.234 87.5535 140.714 87.356 141.55 87.3894C142.265 87.418 142.625 87.6146 142.966 88.0442L143.053 88.1587C143.219 88.3803 143.655 88.5351 144 88.6573C144.258 88.7489 144.464 88.8221 144.466 88.8915C144.472 89.0533 142.974 89.0542 142.589 88.5588L142.505 88.4474C142.253 88.1136 142.055 87.9974 141.513 87.9758C140.877 87.9504 140.518 88.0856 139.888 88.511L139.712 88.6317C139.074 89.07 138.667 89.249 138.037 89.2649C137.258 89.2845 136.73 89.1621 136.243 88.9047L136.141 88.8491L135.848 88.6762C135.643 88.5569 135.508 88.5043 135.336 88.4857L135.23 88.4747C134.784 88.4317 133.866 88.9092 133.196 89.2572C132.776 89.4755 132.454 89.6428 132.409 89.5989C132.31 89.5041 134.347 87.8183 135.232 87.8847ZM139.437 92.2008L139.289 92.215C138.582 92.2975 137.177 93.8517 137.266 93.9073C137.308 93.9331 137.542 93.7609 137.847 93.5365C138.334 93.1785 139.002 92.6874 139.359 92.653L139.444 92.6454C139.582 92.6335 139.695 92.6525 139.872 92.7104L140.124 92.795L140.211 92.8212C140.628 92.9395 141.059 92.9517 141.672 92.8211C142.168 92.7155 142.468 92.5221 142.919 92.1019L143.043 91.9861C143.489 91.5767 143.757 91.4229 144.262 91.347C144.693 91.2823 144.863 91.3391 145.103 91.5491L145.183 91.6193C145.547 91.9294 146.73 91.7058 146.706 91.5865C146.696 91.5354 146.524 91.5118 146.309 91.4823C146.022 91.4429 145.659 91.393 145.501 91.2533L145.418 91.1814C145.097 90.9134 144.788 90.8212 144.221 90.9065C143.556 91.0062 143.201 91.2243 142.643 91.7457L142.518 91.8613C142.17 92.178 141.951 92.3114 141.597 92.3866C141.071 92.4988 140.727 92.4891 140.392 92.3939C140.343 92.38 140.294 92.3645 140.232 92.3433L140.103 92.2994L140.002 92.267C139.799 92.206 139.636 92.1836 139.437 92.2008ZM142.955 95.2157L143.103 95.2015C143.303 95.1843 143.466 95.2067 143.668 95.2677L143.769 95.3001L143.898 95.3441C143.961 95.3652 144.009 95.3807 144.058 95.3946C144.393 95.4899 144.737 95.4995 145.264 95.3873C145.617 95.3121 145.837 95.1787 146.185 94.862L146.309 94.7464C146.867 94.225 147.222 94.0069 147.887 93.9072C148.455 93.8219 148.764 93.9141 149.085 94.1821L149.168 94.254C149.325 94.3937 149.689 94.4436 149.976 94.483H149.976C150.191 94.5125 150.363 94.5361 150.373 94.5872C150.397 94.7065 149.214 94.9301 148.85 94.62L148.77 94.5498C148.53 94.3398 148.36 94.283 147.929 94.3477C147.423 94.4236 147.156 94.5774 146.71 94.9868L146.585 95.1026C146.134 95.5229 145.835 95.7162 145.339 95.8218C144.726 95.9524 144.294 95.9402 143.878 95.8219L143.791 95.7957L143.538 95.7111C143.362 95.6532 143.249 95.6342 143.111 95.6461L143.026 95.6537C142.668 95.6882 142 96.1792 141.514 96.5372L141.514 96.5372L141.514 96.5373C141.208 96.7617 140.974 96.9338 140.933 96.908C140.843 96.8524 142.249 95.2982 142.955 95.2157ZM147.796 98.4454L147.679 98.4777C147.126 98.6433 146.222 100.084 146.301 100.116C146.338 100.13 146.501 99.9598 146.713 99.7373L146.713 99.7373C147.052 99.3825 147.517 98.8958 147.797 98.8179L147.864 98.7999C147.973 98.7708 148.066 98.7701 148.215 98.7915L148.429 98.8236L148.502 98.8322C148.852 98.8681 149.199 98.817 149.67 98.6262C150.052 98.4719 150.264 98.2751 150.565 97.8755L150.649 97.7654C150.948 97.3752 151.14 97.2146 151.533 97.0827C151.868 96.9702 152.012 96.9917 152.234 97.1258L152.307 97.1706C152.642 97.3672 153.556 97.0216 153.521 96.9296C153.505 96.8902 153.364 96.8956 153.188 96.9023C152.953 96.9113 152.656 96.9226 152.51 96.8332L152.434 96.7873C152.139 96.6184 151.879 96.5882 151.438 96.7364C150.92 96.9098 150.667 97.1342 150.294 97.6297L150.211 97.7397C149.978 98.0419 149.821 98.1795 149.549 98.2894C149.144 98.4534 148.868 98.4941 148.586 98.4652C148.545 98.4609 148.504 98.4554 148.451 98.4473L148.342 98.4304L148.257 98.4187C148.086 98.3985 147.953 98.4036 147.796 98.4454ZM151.384 101.17L151.501 101.138C151.657 101.096 151.791 101.091 151.961 101.111L152.047 101.123L152.156 101.14C152.209 101.148 152.25 101.154 152.291 101.158C152.572 101.187 152.849 101.146 153.254 100.982C153.526 100.872 153.683 100.735 153.916 100.432L153.999 100.322C154.372 99.8269 154.625 99.6025 155.142 99.429C155.584 99.2809 155.844 99.311 156.139 99.48L156.215 99.5258C156.361 99.6153 156.658 99.6039 156.893 99.5949C157.069 99.5882 157.21 99.5828 157.225 99.6222C157.261 99.7143 156.347 100.06 156.012 99.8632L155.938 99.8184C155.717 99.6843 155.573 99.6629 155.238 99.7754C154.844 99.9072 154.652 100.068 154.353 100.458L154.27 100.568C153.969 100.968 153.757 101.165 153.375 101.319C152.903 101.51 152.557 101.561 152.207 101.525L152.134 101.516L151.92 101.484C151.771 101.463 151.678 101.463 151.569 101.493L151.502 101.511C151.221 101.588 150.757 102.075 150.418 102.43C150.206 102.652 150.043 102.823 150.006 102.808C149.926 102.776 150.831 101.336 151.384 101.17ZM155.834 103.805L155.717 103.837C155.164 104.003 154.26 105.443 154.339 105.475C154.376 105.49 154.539 105.319 154.751 105.097C155.09 104.742 155.555 104.255 155.835 104.177L155.902 104.159C156.011 104.13 156.104 104.13 156.253 104.151L156.467 104.183L156.54 104.192C156.89 104.228 157.237 104.177 157.708 103.986C158.09 103.831 158.302 103.635 158.603 103.235L158.687 103.125C158.986 102.735 159.178 102.574 159.571 102.442C159.906 102.33 160.05 102.351 160.272 102.485L160.345 102.53C160.68 102.727 161.595 102.381 161.559 102.289C161.543 102.25 161.402 102.255 161.226 102.262C160.992 102.271 160.694 102.282 160.548 102.193L160.472 102.147C160.177 101.978 159.918 101.948 159.476 102.096C158.958 102.269 158.705 102.494 158.332 102.989L158.249 103.099C158.016 103.401 157.859 103.539 157.587 103.649C157.182 103.813 156.906 103.854 156.624 103.825C156.583 103.82 156.542 103.815 156.489 103.807L156.38 103.79L156.295 103.778C156.124 103.758 155.991 103.763 155.834 103.805Z" fill="#FFB61D"/>
<path fill-rule="evenodd" clip-rule="evenodd" d="M96.5519 118.145C96.2044 118.506 95.8609 118.871 95.5174 119.236C94.8676 119.926 94.2178 120.617 93.5406 121.279C92.273 122.518 90.9931 123.751 89.648 124.904C87.9795 126.334 86.2696 127.72 84.521 129.05C82.5422 130.556 80.5158 132.001 78.4804 133.429C78.3736 133.504 78.2672 133.58 78.1607 133.655L78.1568 133.658C77.1186 134.395 76.081 135.13 74.7473 135.358C74.3664 135.423 74.01 135.614 73.6515 135.806C73.366 135.959 73.0791 136.113 72.7773 136.204C70.6969 136.835 68.6059 137.436 66.5016 137.981C65.2097 138.315 63.8906 138.554 62.5747 138.783C61.7556 138.926 57.0644 139.671 53.9435 140.124C50.8226 140.577 40.501 140.577 37.9241 140.523C36.4781 140.493 35.0324 140.443 33.5871 140.388L33.5125 140.385C33.2179 140.375 32.9049 140.364 32.649 140.248C31.2295 139.605 30.1311 140.305 29.0181 141.015L28.938 141.066C27.4767 141.997 26.5823 143.397 25.6986 144.831C25.2291 145.593 24.7316 146.338 24.2341 147.083L24.2339 147.083C23.6986 147.885 23.1634 148.686 22.663 149.509C22.0006 150.598 21.4097 151.732 20.8195 152.865C20.7134 153.068 20.6072 153.272 20.5007 153.476C19.7204 154.965 18.5499 155.832 16.8705 156.152C16.0357 156.312 15.3207 156.064 14.6074 155.817L14.6072 155.816C14.3429 155.725 14.0788 155.633 13.809 155.563C13.2809 155.424 12.8551 153.997 13.0434 153.432C13.5933 151.784 14.1443 150.135 14.6953 148.487C15.8467 145.042 16.9981 141.598 18.1395 138.15C18.9367 135.742 19.7151 133.327 20.4934 130.913L20.4941 130.911C20.7136 130.23 20.9331 129.549 21.153 128.868C21.2579 128.544 21.3575 128.217 21.4571 127.891C21.6222 127.35 21.7873 126.809 21.9764 126.276C22.0383 126.102 22.2945 125.886 22.4688 125.879C23.728 125.829 24.9369 126.138 26.0855 126.609C28.2571 127.5 29.9281 129.003 31.1547 131.004C31.48 131.534 32.0476 131.725 32.7636 131.599C33.1084 131.538 33.4563 131.492 33.8041 131.446L33.8044 131.446L33.8047 131.446L33.8049 131.446L33.8052 131.446L33.8055 131.446L33.8057 131.446L33.806 131.446C34.3382 131.376 34.87 131.305 35.3896 131.182C36.5453 130.908 37.7152 130.899 38.8846 130.889C39.6376 130.883 40.3905 130.877 41.1393 130.801C41.6526 130.748 42.1687 130.718 42.6846 130.688L42.6852 130.688L42.6858 130.688L42.6863 130.688L42.6869 130.688L42.6875 130.688L42.6881 130.688L42.6887 130.688C43.3794 130.647 44.0699 130.607 44.7532 130.513C45.9968 130.342 47.2341 130.127 48.4715 129.911L48.4766 129.91C49.0614 129.808 49.6462 129.706 50.2317 129.609C50.7062 129.53 51.1816 129.456 51.657 129.382L51.6574 129.382L51.6578 129.382L51.6582 129.382L51.6585 129.381L51.6589 129.381L51.6593 129.381L51.6614 129.381C52.5787 129.237 53.4959 129.094 54.4072 128.919C55.5737 128.695 56.7312 128.422 57.8879 128.149L58.3058 128.051C59.5289 127.763 60.7497 127.466 61.9706 127.168C62.4835 127.044 62.9963 126.919 63.5093 126.795C63.5898 126.775 63.6699 126.754 63.7502 126.734C63.7225 126.719 63.6945 126.704 63.6665 126.69C63.6059 126.659 63.5452 126.627 63.4874 126.591C63.3098 126.482 63.127 126.378 62.9442 126.275L62.944 126.275L62.9438 126.275C62.526 126.038 62.1081 125.801 61.7524 125.493C60.9529 124.799 61.2263 123.647 62.2425 123.34C63.0172 123.106 63.8156 122.871 64.6155 122.817C65.6931 122.745 66.6748 122.387 67.6577 122.029L67.6578 122.029C68.0526 121.885 68.4476 121.741 68.8491 121.615C69.7965 121.319 70.3649 120.761 70.8407 119.908C71.0698 119.497 71.4055 119.149 71.7427 118.799C71.98 118.552 72.2181 118.305 72.4203 118.035C73.4679 116.635 74.4865 115.212 75.4782 113.771C75.6891 113.465 75.8583 113.13 76.0277 112.795C76.1572 112.539 76.2867 112.283 76.4351 112.039C76.7831 111.467 77.1373 110.888 77.5671 110.379L77.6235 110.312L77.6238 110.311C78.6096 109.142 79.5984 107.97 80.6705 106.883C81.2551 106.29 81.9003 105.757 82.5456 105.225L82.5464 105.224C82.851 104.973 83.1556 104.721 83.4539 104.463C83.6046 104.333 83.7494 104.192 83.8761 104.038C84.0935 103.775 84.1831 103.556 83.855 103.245L83.7741 103.168L83.6935 103.092L83.5974 103.002C82.7403 102.196 81.8751 101.383 81.4066 100.268C81.3575 100.151 81.308 100.034 81.2584 99.9169C80.8824 99.0293 80.5028 98.1333 80.2888 97.2039C80.0008 95.9529 80.1169 94.6791 80.4899 93.4183C81.0118 91.6542 82.1044 90.3176 83.5843 89.3581C84.4972 88.7662 85.4578 88.2486 86.4187 87.7309L86.4192 87.7306C87.1311 87.347 87.8432 86.9634 88.5363 86.5492C89.0721 86.2291 89.5305 85.7632 89.9776 85.3087L90.1056 85.1788C92.1186 83.1422 93.5214 80.6777 94.9189 78.2223L94.9189 78.2222L94.9209 78.2187C95.0688 77.959 95.2166 77.6993 95.3651 77.4402C96.7159 75.0832 97.9281 72.6439 99.1363 70.2084C99.4843 69.507 99.7825 68.781 100.081 68.0548L100.081 68.0547C100.345 67.4129 100.608 66.7709 100.906 66.1456C101.142 65.6515 101.433 65.184 101.723 64.7163C101.937 64.3725 102.151 64.0286 102.343 63.6737C102.549 63.2925 102.738 62.9009 102.926 62.5094L102.926 62.5093C103.211 61.9163 103.497 61.3237 103.843 60.7693C104.091 60.3731 104.451 60.0465 104.81 59.7203C104.96 59.5838 105.11 59.4473 105.252 59.3058C105.429 59.1295 105.609 58.9563 105.789 58.7832L105.789 58.7829C105.976 58.6023 106.164 58.4217 106.348 58.2376C106.673 57.913 106.993 57.5839 107.304 57.2462C107.902 56.5979 108.502 55.9525 109.103 55.3071L109.105 55.3048C110.588 53.7112 112.07 52.1177 113.504 50.481C115.184 48.5635 116.782 46.5712 118.351 44.5614C118.975 43.7622 119.538 42.9149 120.1 42.0675C120.351 41.6902 120.601 41.3129 120.857 40.9398C120.872 40.9187 120.884 40.8956 120.895 40.8725C120.912 40.8396 120.929 40.8069 120.953 40.7804C121.36 40.3328 121.762 39.8809 122.164 39.429C123.108 38.368 124.053 37.307 125.052 36.3005C126.534 34.8071 128.232 33.5688 130.075 32.5374C130.356 32.3802 130.627 32.2016 130.898 32.0233C131.325 31.7424 131.75 31.462 132.213 31.2664C132.322 31.2204 132.431 31.1732 132.542 31.1258L132.542 31.1257L132.542 31.1256L132.542 31.1255L132.542 31.1254C133.426 30.7458 134.352 30.3479 135.264 30.3292C137.189 30.2897 139.19 30.3115 140.805 31.6719C141.111 31.9296 141.193 31.8689 141.222 31.5241C141.249 31.195 141.305 30.856 141.361 30.5169L141.361 30.5168C141.491 29.7268 141.621 28.9361 141.394 28.2675C141.257 27.8632 141.209 27.4553 141.162 27.0508C141.108 26.5934 141.055 26.1405 140.874 25.7025C140.268 24.2386 139.727 22.7472 139.186 21.2566L139.186 21.2561L139.071 20.9374L138.942 20.5833C138.773 20.118 138.635 19.6294 138.572 19.1399C138.528 18.7902 138.513 18.4365 138.498 18.0828C138.482 17.7199 138.467 17.3569 138.419 16.9982C138.249 15.7223 138.692 14.6013 139.136 13.4758L139.136 13.4754L139.136 13.4751L139.136 13.4749L139.136 13.4747L139.136 13.4745L139.136 13.4742L139.136 13.4738C139.217 13.269 139.298 13.064 139.375 12.8579C140.319 10.3396 142.087 8.43499 143.996 6.64643C145.639 5.10653 148.362 4.62204 150.563 4.2423C151.377 4.10203 157.085 3.96787 160.099 3.89703C161.083 3.87391 161.78 3.85753 161.926 3.84989C162.52 3.81881 162.923 3.54224 163.326 3.24531C164.157 2.63243 164.37 1.68191 164.58 0.746572C164.601 0.654351 164.622 0.562278 164.643 0.47069C164.648 0.448432 164.653 0.426653 164.658 0.405422C164.712 0.160161 164.75 -0.0117572 165.118 0.000628544C166.349 0.0419661 166.983 0.845836 167.585 1.7644C168.264 2.79877 168.814 3.87733 169.003 5.11026C169.233 6.61148 169.109 8.00594 168.041 9.24222C167.173 10.2477 166.163 11.0161 165.021 11.661C164.869 11.7466 164.774 12.1999 164.858 12.3935C165.718 14.378 165.782 16.4699 165.698 18.5702C165.678 19.08 165.595 19.5871 165.512 20.0943C165.434 20.5748 165.356 21.0555 165.33 21.5388C165.257 22.9247 165.541 24.2576 166.096 25.5464C166.474 26.4208 166.209 27.2488 165.576 27.936C165.468 28.0537 165.333 28.1523 165.199 28.25C165.011 28.3874 164.825 28.5232 164.719 28.7084C164.478 29.1273 164.311 29.6313 164.272 30.1118C164.242 30.4795 164.282 30.852 164.321 31.2253C164.346 31.4573 164.37 31.6896 164.378 31.9212C164.409 32.8131 164.07 33.5759 163.613 34.3372C162.785 35.715 161.692 36.7286 160.106 37.0604C158.748 37.3447 157.337 37.3616 156.025 36.9144C154.535 36.4067 153.083 35.757 151.681 35.0381C151.283 34.834 150.968 34.4673 150.653 34.1008L150.653 34.1006C150.512 33.9367 150.371 33.7729 150.223 33.6236C150.004 33.4026 149.893 33.3384 149.601 33.6473C148.559 34.7508 147.802 36.0043 147.19 37.3884C146.852 38.1522 147.071 38.78 147.304 39.4488L147.332 39.5275L147.398 39.7183C147.722 40.6442 148.044 41.5655 148.019 42.5786C148.006 43.0807 148.016 43.5843 148.026 44.0876C148.041 44.8829 148.056 45.6776 147.984 46.4649C147.907 47.3069 147.718 48.139 147.529 48.9706C147.453 49.3054 147.377 49.6401 147.308 49.9753C147.235 50.3311 147.164 50.6873 147.092 51.0435C146.876 52.1214 146.66 53.1993 146.402 54.2669C146.282 54.7611 146.118 55.2441 145.954 55.7273L145.953 55.7279L145.953 55.7285C145.819 56.1235 145.684 56.5187 145.574 56.9202C145.447 57.3859 145.318 57.8513 145.188 58.3167L145.188 58.3174C144.686 60.1271 144.183 61.9376 143.776 63.769C143.427 65.3373 143.226 66.9507 143.109 68.5549C143.036 69.5578 143.047 70.5665 143.058 71.5756V71.5757V71.5759V71.576V71.5762V71.5763V71.5764V71.5766V71.5782C143.064 72.1357 143.07 72.6932 143.062 73.2499C143.056 73.6709 143.034 74.0918 143.013 74.5126L143.013 74.5135V74.5138V74.5141V74.5144V74.5147V74.515V74.5153V74.5156C142.985 75.0504 142.957 75.585 142.961 76.1195C142.963 76.3329 142.965 76.5465 142.966 76.7601C142.975 78.1738 142.985 79.59 143.109 80.9948C143.233 82.396 143.499 83.7923 143.806 85.1674C144.058 86.2969 144.833 87.1698 145.601 87.9884C146.001 88.4145 146.445 88.7991 146.889 89.184L146.889 89.1842L146.889 89.1842C147.199 89.4534 147.51 89.7226 147.806 90.0063C148.008 90.2006 148.191 90.4172 148.373 90.6336L148.373 90.6337C148.6 90.9028 148.826 91.1714 149.09 91.3963C149.952 92.1296 150.829 92.8457 151.706 93.5618L151.706 93.562L151.707 93.5622L151.707 93.5624L151.707 93.5626L151.707 93.5628L151.707 93.563L151.708 93.5638L151.711 93.5659C152.376 94.109 153.041 94.6521 153.7 95.2028C154.289 95.6959 154.871 96.1996 155.452 96.7034L155.452 96.7038L155.453 96.7043L155.453 96.7047L155.454 96.7052L155.454 96.7057L155.455 96.7061L155.456 96.7072C156.045 97.2177 156.634 97.7282 157.232 98.2278C158.049 98.9105 158.878 99.5839 159.744 100.202C160.151 100.494 160.578 100.758 161.005 101.022L161.005 101.022C161.446 101.296 161.888 101.569 162.308 101.872C162.812 102.236 163.203 102.031 163.592 101.828C163.726 101.757 163.86 101.687 163.998 101.641C165.119 101.262 166.006 101.405 166.427 102.483C166.511 102.699 166.64 102.894 166.769 103.089C167.005 103.445 167.243 103.804 167.222 104.306C167.216 104.463 167.555 104.65 167.845 104.811C167.914 104.849 167.981 104.886 168.039 104.92C168.894 105.424 169.758 105.911 170.623 106.396C170.807 106.5 170.998 106.594 171.189 106.689C171.556 106.871 171.923 107.052 172.241 107.297C172.566 107.546 172.861 107.834 173.156 108.122C173.452 108.411 173.747 108.7 174.073 108.95C174.744 109.464 175.125 110.171 175.503 110.874C175.642 111.132 175.78 111.389 175.933 111.636C176.354 112.319 176.597 113.156 176.737 113.957C176.926 115.035 177.002 116.145 176.998 117.241C176.996 117.699 176.718 118.191 176.463 118.603C176.188 119.048 175.776 119.112 175.379 118.682C175.347 118.647 175.301 118.624 175.255 118.6C175.234 118.59 175.213 118.579 175.193 118.567C175.189 118.605 175.185 118.643 175.181 118.682C175.176 118.728 175.171 118.775 175.164 118.822C175.139 119.006 175.118 119.192 175.098 119.377C175.048 119.835 174.999 120.292 174.87 120.726C174.784 121.016 174.411 121.401 174.152 121.413C173.953 121.423 173.744 121.237 173.537 121.054C173.454 120.981 173.371 120.907 173.289 120.847C173.21 120.788 173.142 120.712 173.075 120.637L173.075 120.637L173.054 120.613C173.012 120.566 172.975 120.515 172.938 120.463C172.921 120.441 172.905 120.418 172.888 120.396C172.876 120.422 172.863 120.448 172.851 120.475L172.851 120.475L172.851 120.475L172.851 120.476L172.85 120.476L172.85 120.476C172.835 120.51 172.819 120.544 172.803 120.578C172.791 120.601 172.78 120.625 172.768 120.648C172.731 120.722 172.698 120.8 172.665 120.879C172.592 121.055 172.519 121.232 172.392 121.352C171.903 121.818 171.246 121.636 171.045 120.983C170.94 120.643 170.853 120.297 170.766 119.952C170.645 119.473 170.525 118.995 170.358 118.534C170.289 118.343 170.232 118.149 170.175 117.955C170.008 117.386 169.841 116.817 169.373 116.338C169.036 115.994 168.83 115.518 168.625 115.045C168.545 114.861 168.465 114.677 168.378 114.501C167.853 113.444 166.986 112.752 165.982 112.194C165.709 112.042 165.438 111.876 165.201 111.674C164.675 111.227 164.311 111.471 163.991 111.925C163.462 112.677 162.586 112.954 161.771 112.521C160.522 111.858 159.502 110.986 159.163 109.494C159.1 109.218 158.693 108.974 158.394 108.806C157.496 108.299 156.592 107.802 155.689 107.305L155.688 107.305L155.688 107.305L155.687 107.304L155.687 107.304L155.686 107.304L155.686 107.303L155.685 107.303C154.185 106.478 152.685 105.652 151.209 104.784C149.369 103.702 147.577 102.536 145.785 101.372L145.785 101.372L145.244 101.02C142.418 99.1854 139.603 97.334 136.788 95.4826L135.138 94.3981C134.521 93.9925 133.908 93.5804 133.295 93.1684L133.294 93.1677C132.866 92.88 132.439 92.5924 132.009 92.3069C131.838 92.1928 131.656 92.09 131.47 92.0021C130.915 91.7399 130.752 91.8345 130.708 92.4299C130.706 92.452 130.708 92.4743 130.707 92.4965L130.672 95.0049C130.64 97.3053 130.608 99.6058 130.573 101.906C130.563 102.641 130.948 103.205 131.327 103.76C131.404 103.872 131.48 103.984 131.553 104.098C132.891 106.17 134.257 108.225 135.637 110.27C136.015 110.831 136.407 111.383 136.799 111.935C137.391 112.768 137.983 113.601 138.527 114.464C138.803 114.902 138.967 115.41 139.132 115.918C139.204 116.141 139.277 116.364 139.358 116.581C139.367 116.604 139.376 116.627 139.385 116.65L139.405 116.702L139.428 116.759L139.474 116.877C139.58 117.142 139.686 117.408 139.753 117.683C140.29 119.906 140.048 122.112 139.517 124.294L139.472 124.479L139.41 124.732L139.41 124.732C139.081 126.095 138.749 127.464 138.268 128.774C137.882 129.825 137.401 130.841 136.919 131.856L136.919 131.856L136.919 131.856L136.919 131.857L136.919 131.857L136.918 131.857L136.918 131.857L136.918 131.857C136.686 132.346 136.454 132.835 136.233 133.328C135.846 134.189 135.473 135.057 135.103 135.925C134.477 137.398 133.853 138.873 133.238 140.351C133.015 140.885 132.799 141.423 132.584 141.961L132.584 141.962L132.583 141.963L132.583 141.964L132.582 141.965L132.582 141.966L132.582 141.966C132.149 143.047 131.716 144.127 131.225 145.18C130.516 146.696 129.729 148.177 128.942 149.655L128.941 149.658L128.94 149.66L128.939 149.662C128.827 149.872 128.715 150.082 128.604 150.292C128.112 151.218 127.608 152.138 127.105 153.058C126.617 153.948 126.13 154.839 125.653 155.735C125.219 156.552 124.796 157.375 124.373 158.199L124.373 158.2C123.921 159.08 123.469 159.96 123.003 160.833C122.34 162.072 121.646 163.296 120.932 164.506C120.337 165.513 120.509 165.982 121.197 166.91C121.943 167.916 123.102 168.252 124.252 168.515C127.405 169.235 130.565 169.926 133.725 170.616L133.884 170.651C134.202 170.721 134.524 170.773 134.847 170.824L134.847 170.824L134.847 170.825L134.847 170.825L134.848 170.825L134.848 170.825L134.848 170.825C135.21 170.883 135.571 170.941 135.927 171.024C137.707 171.441 138.6 172.75 139.076 174.375C139.381 175.414 139.471 176.53 138.643 177.393C138.331 177.719 137.76 177.961 137.306 177.963C131.452 177.983 125.599 177.986 119.746 177.989C116.06 177.991 112.375 177.993 108.689 177.999C108.259 178 108.228 177.871 108.196 177.493C108.163 177.109 108.094 176.726 108.026 176.344L108.026 176.343L108.026 176.343L108.026 176.343L108.026 176.343L108.026 176.343L108.026 176.343L108.026 176.342C107.926 175.78 107.826 175.219 107.838 174.659C107.897 171.968 108.84 169.558 110.49 167.442C110.609 167.289 110.802 167.188 110.993 167.088C111.205 166.977 111.413 166.868 111.513 166.692C111.994 165.841 112.407 164.936 112.723 164.011C113.229 162.528 113.732 161.032 114.057 159.503C114.206 158.801 114.422 158.12 114.638 157.438C114.906 156.591 115.174 155.743 115.316 154.852C115.466 153.911 115.857 153.004 116.246 152.103L116.246 152.103L116.246 152.102L116.246 152.102L116.246 152.102L116.246 152.102L116.246 152.102L116.247 152.102C116.367 151.822 116.487 151.543 116.6 151.264C116.985 150.311 117.383 149.362 117.781 148.414L117.781 148.413C118.4 146.939 119.018 145.465 119.589 143.973C119.996 142.91 120.333 141.819 120.67 140.729C120.863 140.107 121.055 139.484 121.261 138.867C121.696 137.56 122.137 136.254 122.635 134.971C122.747 134.683 122.685 134.678 122.527 134.665C122.498 134.663 122.465 134.661 122.43 134.656C120.329 134.377 118.258 134.401 116.298 135.337C115.869 135.542 115.566 135.499 115.282 135.142C114.992 134.778 115.143 134.512 115.4 134.177C116.932 132.182 117.883 129.91 118.613 127.513C118.689 127.262 118.768 127.011 118.847 126.761C119.321 125.25 119.793 123.744 119.781 122.139C119.771 120.923 119.471 119.832 118.635 118.815C118.452 118.592 118.283 118.358 118.115 118.125L118.115 118.125L118.115 118.124L118.115 118.124L118.115 118.124L118.115 118.124L118.115 118.124L118.115 118.124C117.613 117.428 117.118 116.741 116.258 116.382C115.822 116.2 115.392 116.004 114.962 115.808C114.515 115.604 114.067 115.4 113.613 115.213C113.269 115.07 112.926 114.926 112.582 114.782L112.581 114.782L112.581 114.782L112.58 114.782L112.58 114.782L112.579 114.781L112.579 114.781C111.221 114.213 109.862 113.645 108.477 113.154C107.635 112.855 106.763 112.642 105.892 112.429C105.496 112.332 105.099 112.235 104.706 112.13C104.629 112.109 104.552 112.085 104.476 112.06L104.401 112.037C104.38 112.03 104.358 112.023 104.337 112.017C104.322 112.012 104.307 112.008 104.292 112.004C103.397 111.748 102.615 111.792 102.007 112.657C101.74 113.036 101.373 113.345 100.989 113.668L100.988 113.669C100.946 113.705 100.903 113.741 100.86 113.777C100.827 113.805 100.793 113.834 100.759 113.863C99.3119 115.29 97.9293 116.715 96.5519 118.145ZM129.383 93.9251C129.427 93.6078 129.49 93.2929 129.553 92.9781L129.553 92.978L129.553 92.9778L129.553 92.9777L129.553 92.9776L129.553 92.9774L129.553 92.9773L129.553 92.9772C129.63 92.5914 129.707 92.2057 129.749 91.8161L129.761 91.7073L129.761 91.7071C129.851 90.8714 129.942 90.0234 129.883 89.1919C129.852 88.7614 129.737 88.3381 129.623 87.9139C129.529 87.5702 129.436 87.2259 129.387 86.8767C129.13 85.0409 128.898 83.2 128.72 81.355C128.565 79.751 128.461 78.1418 128.358 76.533L128.358 76.5322L128.314 75.8562C128.21 74.25 128.113 72.6428 128.05 71.0345C127.99 69.4928 127.96 67.9498 127.931 66.407V66.4065L127.918 65.7579C127.916 65.6607 127.949 65.5635 127.982 65.4657L127.982 65.4655C128.004 65.4031 128.025 65.3405 128.037 65.2773C128.051 65.2061 128.069 65.1343 128.086 65.0624L128.086 65.0623C128.133 64.8637 128.181 64.6639 128.163 64.4709C128.144 64.2585 128.096 64.0469 128.049 63.8358C127.984 63.5496 127.919 63.2645 127.927 62.98C127.974 61.0953 128.059 59.2115 128.144 57.3278V57.3277V57.3276V57.3274V57.3273V57.3272V57.3271V57.327L128.182 56.492C128.2 56.0871 128.252 55.6821 128.314 55.2811C128.488 54.1478 128.669 53.0156 128.851 51.8834L128.977 51.0914C128.992 50.9993 129.012 50.908 129.032 50.8168C129.041 50.7744 129.05 50.7321 129.059 50.6897C129.064 50.7369 129.071 50.784 129.077 50.8311C129.092 50.9324 129.106 51.0336 129.108 51.1351C129.15 53.2449 129.189 55.3547 129.228 57.4645V57.4647V57.4649V57.465V57.4652V57.4654V57.4655V57.4657L129.243 58.278C129.256 58.988 129.27 59.698 129.283 60.408C129.316 62.1011 129.348 63.7943 129.375 65.4876C129.392 66.6079 129.406 67.7283 129.42 68.8487V68.8488V68.8489V68.849V68.8491V68.8492V68.8493V68.8493L129.42 68.8513C129.445 70.8887 129.47 72.9261 129.518 74.963C129.554 76.4826 129.651 78.0031 129.786 79.5173C129.884 80.6283 130.029 81.7354 130.173 82.8422L130.173 82.8429L130.174 82.845L130.174 82.8471L130.174 82.8493L130.174 82.8514L130.175 82.8535C130.22 83.201 130.265 83.5484 130.309 83.8959C130.371 84.387 130.439 84.8774 130.506 85.3679L130.506 85.368L130.506 85.3682L130.506 85.3683L130.507 85.3685L130.507 85.3687L130.507 85.3688L130.507 85.369C130.625 86.2256 130.743 87.0821 130.831 87.9418C130.943 89.0347 131.469 89.9195 132.226 90.6202C132.778 91.1316 133.401 91.5673 134.024 92.0028C134.269 92.1747 134.515 92.3467 134.757 92.5232C135.261 92.8923 135.764 93.2646 136.266 93.6369C137.526 94.571 138.787 95.5051 140.082 96.3879C141.24 97.1767 142.431 97.9157 143.622 98.6547L143.622 98.655L143.623 98.6553L143.623 98.6555L143.623 98.6558L143.624 98.656L143.624 98.6563L143.625 98.6565C144.201 99.014 144.777 99.3714 145.349 99.7345C145.899 100.083 146.447 100.436 146.994 100.788L146.997 100.789C147.972 101.416 148.947 102.043 149.933 102.651L150.119 102.766C151.928 103.88 153.738 104.995 155.59 106.034C156.47 106.527 157.403 106.928 158.334 107.328C158.573 107.431 158.812 107.534 159.05 107.638C159.188 107.698 159.507 107.629 159.572 107.519C159.727 107.258 159.828 106.963 159.928 106.67C159.948 106.612 159.968 106.553 159.988 106.495C160.378 105.385 160.87 104.348 161.71 103.483C162.344 102.831 162.255 102.634 161.375 102.264L161.235 102.205L161.231 102.203L161.226 102.202L161.226 102.202C160.858 102.048 160.487 101.893 160.153 101.682C159.532 101.29 158.928 100.865 158.348 100.415C157.836 100.017 157.323 99.6213 156.81 99.2254L156.808 99.2238L156.806 99.2221L156.804 99.2204L156.802 99.2188L156.8 99.2171C155.058 97.8727 153.316 96.5281 151.623 95.1254C150.046 93.8196 148.548 92.4123 147.081 90.9826C146.876 90.7836 146.67 90.5863 146.463 90.3888C145.215 89.1952 143.961 87.9966 143.169 86.4129C143.06 86.196 142.935 85.987 142.809 85.7779C142.445 85.1711 142.081 84.5643 142.134 83.7671C142.167 83.2796 142.102 82.7846 142.037 82.2907L142.037 82.2904L142.037 82.29L142.037 82.2895L142.037 82.289L142.037 82.2886L142.037 82.2881C142.013 82.1101 141.99 81.9322 141.971 81.7548C141.92 81.2761 141.86 80.7979 141.799 80.3197L141.799 80.3181L141.799 80.3166L141.799 80.315L141.799 80.3135L141.798 80.3119L141.798 80.3104V80.3102V80.3101V80.31V80.3099V80.3098V80.3097V80.3096C141.674 79.3261 141.55 78.3428 141.508 77.3559C141.452 76.0226 141.465 74.6864 141.477 73.3502C141.483 72.775 141.489 72.1998 141.489 71.6248C141.489 71.4898 141.485 71.3544 141.481 71.2189C141.472 70.9232 141.463 70.6275 141.496 70.3365C141.654 68.9194 141.815 67.5016 142.028 66.0921C142.07 65.8167 142.111 65.5409 142.151 65.265C142.35 63.9152 142.549 62.5625 142.878 61.2439C143.164 60.0941 143.516 58.9609 143.869 57.8276L143.869 57.8274L143.869 57.8273L143.869 57.8271L143.869 57.827L143.869 57.8268L143.869 57.8267L143.869 57.8265C144.147 56.9302 144.426 56.0338 144.672 55.1289C144.849 54.4779 145.044 53.8315 145.239 53.185L145.24 53.1841C145.728 51.5654 146.217 49.9462 146.424 48.253C146.469 47.884 146.563 47.5164 146.656 47.1501L146.656 47.15L146.656 47.1498C146.793 46.611 146.929 46.0749 146.91 45.5413C146.841 43.6132 146.304 41.7553 145.764 39.9006C144.956 37.13 143.555 34.8192 141.131 33.1745C139.732 32.2256 138.267 31.5307 136.532 31.754C135.902 31.8349 135.279 31.9648 134.656 32.0946L134.656 32.0946L134.656 32.0946L134.656 32.0947L134.656 32.0947L134.656 32.0947L134.656 32.0947L134.656 32.0947C134.356 32.1572 134.057 32.2196 133.756 32.2765C132.052 32.6001 130.543 33.3527 129.184 34.4105C128.388 35.0298 127.612 35.6757 126.856 36.3434C126.101 37.011 125.346 37.6862 124.658 38.421C124.018 39.1043 123.423 39.8301 122.828 40.5554L122.828 40.5555C122.698 40.7133 122.569 40.8711 122.439 41.0285C121.416 42.2672 120.396 43.5085 119.396 44.7652C118.958 45.3157 118.529 45.8734 118.099 46.4311C117.451 47.274 116.802 48.1168 116.123 48.9343C114.891 50.4168 113.612 51.8618 112.315 53.2874C110.532 55.2465 108.718 57.1771 106.904 59.1073C106.75 59.2718 106.572 59.4154 106.394 59.5587C106.181 59.7305 105.968 59.9021 105.797 60.1089C104.484 61.6943 103.246 63.3479 102.369 65.2155C101.559 66.9372 100.779 68.6729 99.9995 70.4086L99.9994 70.4087L99.9994 70.4088L99.9993 70.4089L99.9993 70.409L99.9992 70.4091L99.9992 70.4092L99.9991 70.4094L99.9986 70.4106C99.2977 71.9705 98.5968 73.5303 97.8745 75.0802C96.7034 77.593 95.4145 80.0407 93.8587 82.3513L93.7444 82.5212C92.9111 83.7605 92.0774 85.0003 90.9029 85.9034C89.372 87.0806 87.7782 88.1765 86.1849 89.272C85.7691 89.5579 85.3533 89.8438 84.9386 90.1311C83.5947 91.0624 82.5312 92.2376 82.0084 93.7854C81.3663 95.686 81.6947 97.5736 82.5911 99.3059C83.6944 101.438 85.4406 103.068 87.2236 104.621C89.2021 106.344 91.5012 107.58 93.982 108.375C97.1706 109.396 100.377 110.387 103.75 110.677C104.632 110.752 105.51 110.868 106.389 110.983L106.389 110.983C107.369 111.112 108.348 111.241 109.332 111.315C111.508 111.477 113.693 111.567 115.875 111.579C116.856 111.585 117.838 111.517 118.819 111.449L118.82 111.449C119.443 111.405 120.066 111.362 120.689 111.338C122.384 111.271 123.99 110.825 125.571 110.263C126.633 109.886 127.617 109.366 128.005 108.218C128.231 107.551 128.343 106.836 128.436 106.132L128.46 105.951C128.656 104.467 128.853 102.98 128.964 101.488C129.067 100.114 129.121 98.7354 129.176 97.3063C129.197 96.7682 129.219 96.2228 129.243 95.6676C129.257 95.4891 129.267 95.3103 129.278 95.1314C129.303 94.7279 129.328 94.3244 129.383 93.9251ZM73.0148 134.392C73.0857 134.456 73.2479 134.498 73.3276 134.461C73.6915 134.296 74.0617 134.139 74.432 133.983L74.4322 133.983L74.4324 133.983C75.335 133.602 76.2384 133.221 77.0519 132.7C78.5044 131.769 79.9216 130.784 81.339 129.798C82.4513 129.025 83.5636 128.251 84.6931 127.504C87.1565 125.875 89.3161 123.891 91.4762 121.907L91.4766 121.907L91.4769 121.906L91.4772 121.906L91.4776 121.906L91.4779 121.905L91.4783 121.905L91.4786 121.905C91.8986 121.519 92.3186 121.133 92.7409 120.75C93.3974 120.154 94.0151 119.515 94.6322 118.876L94.6323 118.876L94.6323 118.876L94.6324 118.876L94.6325 118.876L94.6326 118.876L94.6326 118.875L94.6327 118.875C94.7663 118.737 94.8999 118.599 95.0339 118.461C95.7688 117.705 96.497 116.942 97.2252 116.179C97.5407 115.849 97.8562 115.518 98.1723 115.188C98.3992 114.951 98.6266 114.715 98.854 114.479L98.8547 114.478C99.6803 113.62 100.506 112.762 101.306 111.88C101.4 111.776 101.282 111.257 101.174 111.225C100.721 111.087 100.259 110.975 99.7971 110.863L99.7968 110.863C99.2111 110.72 98.6257 110.578 98.0575 110.385L97.7678 110.286C95.4169 109.486 93.0627 108.684 90.762 107.753C88.6548 106.901 86.7028 105.731 84.9578 104.246C84.9308 104.223 84.8056 104.253 84.792 104.286C84.2882 105.504 83.3503 106.333 82.4091 107.166C82.1944 107.356 81.9796 107.546 81.7697 107.741C80.7816 108.658 79.8011 109.598 78.9352 110.627C78.3757 111.293 77.8995 112.029 77.4237 112.765C77.2487 113.035 77.0738 113.306 76.8949 113.572C76.6926 113.874 76.479 114.171 76.2652 114.467C75.7411 115.195 75.2164 115.924 74.8572 116.726C74.0561 118.516 72.8138 119.942 71.5171 121.331C70.2423 122.697 68.5052 123.206 66.79 123.708L66.7787 123.711L66.6145 123.76L66.4873 123.797L66.3122 123.849C65.6821 124.036 65.0339 124.162 64.3854 124.288L64.3853 124.288L64.3852 124.288L64.3852 124.288L64.3851 124.289L64.385 124.289L64.3849 124.289L64.3848 124.289C64.0292 124.358 63.6735 124.427 63.3207 124.506C63.2311 124.526 63.1505 124.587 63.07 124.647C63.0327 124.675 62.9954 124.703 62.9572 124.727C62.9986 124.776 63.041 124.84 63.0834 124.904C63.1749 125.041 63.2663 125.179 63.3476 125.173C64.1757 125.115 64.7943 125.54 65.4022 125.959C65.5644 126.07 65.7258 126.181 65.8902 126.282C66.6918 126.776 67.479 127.307 67.946 128.226C68.249 128.822 68.6564 129.367 69.0626 129.909L69.0626 129.909C69.1872 130.076 69.3117 130.242 69.433 130.41C69.9319 131.099 70.4533 131.771 71.0212 132.504L71.0218 132.505L71.0224 132.506L71.1432 132.661L71.3796 132.882L71.5677 133.057C72.0477 133.505 72.5277 133.952 73.0148 134.392ZM113.901 113.736C114.408 114.005 114.948 114.211 115.488 114.416C116.553 114.821 117.617 115.226 118.43 116.124C118.676 116.396 118.961 116.634 119.245 116.872C119.43 117.027 119.615 117.181 119.79 117.346C120.369 117.89 120.569 118.617 120.768 119.342C120.797 119.447 120.826 119.552 120.856 119.657C121.403 121.559 121.278 123.527 120.799 125.351L120.706 125.705C120.066 128.142 119.418 130.615 118.06 132.802C117.903 133.056 117.82 133.192 118.253 133.204C119.418 133.238 120.582 133.281 121.746 133.325C123.029 133.373 124.312 133.421 125.595 133.455C126.4 133.477 127.205 133.472 128.011 133.466C128.566 133.463 129.121 133.459 129.676 133.464C131.13 133.478 132.542 133.268 133.865 132.651C133.917 132.627 133.972 132.602 134.027 132.577C134.479 132.37 134.99 132.137 135.194 131.766C135.714 130.821 136.083 129.78 136.418 128.748C136.909 127.237 137.395 125.716 137.738 124.168C138.03 122.845 138.178 121.481 138.269 120.127C138.297 119.72 138.228 119.307 138.158 118.894C138.103 118.565 138.048 118.235 138.041 117.907C138.013 116.618 137.403 115.568 136.792 114.518L136.685 114.334C136.543 114.088 136.36 113.867 136.178 113.645C136.035 113.471 135.893 113.298 135.769 113.112C134.788 111.646 133.811 110.176 132.835 108.707L132.83 108.7C132.142 107.665 131.454 106.629 130.764 105.594C130.698 105.495 130.612 105.408 130.526 105.321C130.486 105.281 130.446 105.241 130.409 105.199C130.37 105.258 130.325 105.315 130.28 105.372C130.182 105.497 130.083 105.623 130.054 105.762C129.987 106.086 129.943 106.415 129.898 106.744C129.861 107.024 129.823 107.304 129.771 107.581C129.471 109.188 128.701 110.423 127.186 111.218C125.098 112.314 122.854 112.782 120.56 113.045C119.238 113.197 117.892 113.221 116.56 113.178C115.759 113.152 114.961 113.053 114.163 112.954L114.163 112.954C113.73 112.901 113.298 112.847 112.865 112.805C112.748 112.794 112.627 112.829 112.506 112.864C112.45 112.881 112.394 112.897 112.338 112.909C112.362 112.927 112.385 112.946 112.408 112.965L112.441 112.992C112.526 113.062 112.611 113.131 112.7 113.196C112.719 113.209 112.74 113.219 112.766 113.232L112.766 113.232C112.808 113.251 112.862 113.277 112.937 113.331C113.039 113.373 113.142 113.413 113.245 113.452C113.468 113.538 113.692 113.624 113.901 113.736ZM141.507 11.3902C140.664 12.6247 140.154 14.0323 139.897 15.5122C139.636 17.0158 139.599 18.5365 140.04 20.0042C140.3 20.8709 140.594 21.7274 140.889 22.5838C141.23 23.575 141.57 24.5661 141.858 25.5726C142.035 26.1941 142.438 26.4851 142.882 26.6415C144.978 27.38 147.256 26.482 148.558 24.5544C148.911 24.0312 148.707 23.8164 148.348 23.4506C147.862 22.9555 147.437 22.382 147.075 21.7874C146.534 20.8999 146.763 19.995 147.382 19.2783C148.001 18.561 148.931 18.4016 149.796 18.7021C150.785 19.0455 151.496 19.8014 152.004 20.7272C152.027 20.7705 152.044 20.8176 152.061 20.8647C152.066 20.878 152.071 20.8912 152.076 20.9044L152.08 20.9143L152.086 20.93C152.103 20.8928 152.124 20.8569 152.137 20.8181C152.212 20.5896 152.284 20.3597 152.356 20.1297C152.735 18.9227 153.115 17.7124 153.88 16.6827C154.477 15.8799 155.12 15.0794 155.878 14.4387C156.444 13.9597 157.144 13.6264 157.83 13.2994C157.93 13.2516 158.031 13.2039 158.13 13.1559C158.363 13.0431 158.597 12.928 158.83 12.8127L158.83 12.8126L158.83 12.8126L158.831 12.8125L158.831 12.8124L158.831 12.8124L158.831 12.8123L158.832 12.8117C159.815 12.3264 160.802 11.8392 161.837 11.5149C162.01 11.4607 162.097 11.4339 162.138 11.4213L162.139 11.4212L162.164 11.4134L162.168 11.4122L162.17 11.4114C162.17 11.4113 162.168 11.4118 162.164 11.4126C162.11 11.4247 161.759 11.5028 165.18 10.2691C169.957 8.5465 167.499 3.1201 166.085 1.92637C165.98 1.83746 165.813 1.74198 165.699 1.76646C165.598 1.78846 165.468 1.96583 165.458 2.08423C165.352 3.27045 163.613 5.11125 159.484 4.82544C156.657 4.62983 156.596 4.64108 156.461 4.66593C156.398 4.67738 156.32 4.69173 155.948 4.69001C155.058 4.68591 151.975 4.97298 151.352 5.14921C151.125 5.21322 150.829 5.27511 150.481 5.34792C148.821 5.69486 145.973 6.28996 143.819 8.5465C143.58 8.83644 143.335 9.12177 143.09 9.4071C142.536 10.0505 141.983 10.6939 141.507 11.3902ZM152.801 23.1685C152.801 23.7684 152.681 24.3587 152.561 24.9489L152.561 24.9493L152.561 24.9496L152.561 24.9498L152.561 24.9501L152.561 24.9504L152.561 24.9507L152.561 24.951C152.503 25.2341 152.445 25.5171 152.401 25.8012C152.394 25.8461 152.37 25.8885 152.347 25.9308L152.338 25.9475L152.33 25.9618L152.325 25.9711L152.319 25.9831L152.316 25.9902C152.311 25.971 152.306 25.9518 152.301 25.9327C152.29 25.8917 152.279 25.8508 152.271 25.8092C152.216 25.5186 152.165 25.2271 152.114 24.9356C151.999 24.2762 151.884 23.6169 151.726 22.9679C151.537 22.1898 151.327 21.3968 150.978 20.683C150.575 19.8577 148.886 19.4682 148.055 19.9012C147.581 20.1481 147.354 20.7398 147.661 21.1697C147.952 21.5764 148.308 21.9921 148.733 22.2342C149.429 22.6316 149.656 23.2943 149.712 23.944C149.819 25.1656 148.537 26.8834 147.291 27.1923C146.159 27.4732 145.005 27.6686 143.851 27.8637C143.579 27.9098 143.307 27.9559 143.035 28.0031C143.007 28.008 142.979 28.0126 142.952 28.0171C142.588 28.077 142.3 28.1247 142.415 28.6565C142.727 30.1002 142.829 31.5546 142.567 33.023C142.551 33.1122 142.713 33.2521 142.817 33.3403C142.948 33.4531 143.087 33.5594 143.226 33.6655L143.226 33.6656C143.481 33.8607 143.736 34.0556 143.946 34.2905C144.293 34.6766 144.615 35.0836 144.938 35.4908C145.16 35.7704 145.382 36.05 145.611 36.323C145.671 36.3942 145.912 36.424 145.97 36.3688C146.264 36.0876 146.551 35.7983 146.838 35.5091L146.838 35.5089L146.838 35.5087L146.838 35.5086L146.838 35.5084L146.838 35.5083L146.839 35.5081L146.839 35.5079C147.174 35.1696 147.509 34.8313 147.857 34.506C148.697 33.7188 149.559 32.9534 150.431 32.2013C150.544 32.1039 150.699 32.0561 150.855 32.0084C150.927 31.9864 150.999 31.9643 151.066 31.9375L151.05 31.9749L151.029 32.0252L150.983 32.1337C150.907 32.3127 150.832 32.4917 150.742 32.6635C150.727 32.6935 150.682 32.7056 150.635 32.7184C150.594 32.7293 150.552 32.7408 150.525 32.7644L150.506 32.7801L150.482 32.8013C150.314 32.9446 150.19 33.0499 150.563 33.2277C150.958 33.4157 151.323 33.6649 151.689 33.914C151.841 34.0181 151.994 34.1222 152.149 34.2219C154.534 35.7567 157.104 36.4775 159.948 36.011C161.557 35.7472 162.661 34.8913 163.152 33.308C163.622 31.7912 163.427 31.35 161.977 30.7404L161.899 30.7079L161.832 30.6797L161.831 30.6794L161.829 30.6786C161.065 30.3606 160.305 30.0449 160.105 29.1081C160.023 28.7229 160.735 28.3076 160.893 28.6688L160.894 28.6729L160.895 28.6756C161.05 29.3821 161.586 29.6261 162.151 29.8806C163.191 30.3488 163.318 30.2832 163.318 29.2158C163.318 27.8182 163.318 27.8182 164.544 27.3829C165.254 27.1307 165.368 26.8841 165.045 26.1943C164.558 25.1527 164.24 24.0916 164.375 22.9138C164.541 21.4625 164.68 20.0064 164.771 18.5487C164.83 17.6119 164.886 16.6533 164.752 15.7324C164.666 15.1427 164.455 14.5711 164.245 13.9996L164.244 13.9989C164.154 13.7533 164.064 13.5078 163.983 13.2609C163.794 12.6801 163.337 12.4468 162.742 12.6615C162.369 12.7957 161.995 12.9251 161.62 13.0545C160.577 13.4148 159.534 13.7753 158.539 14.2401C157.493 14.7294 156.433 15.3364 155.619 16.1361C154.887 16.8546 152.801 20.4742 152.801 23.1685ZM66.8288 136.262C67.2701 136.164 67.7115 136.066 68.153 135.968C69.1137 135.755 70.0744 135.543 71.0331 135.322C71.171 135.29 71.2998 135.218 71.4286 135.147C71.4883 135.114 71.5479 135.081 71.6084 135.052C71.5735 135.032 71.5383 135.012 71.5029 134.992L71.4538 134.964C71.3337 134.897 71.2136 134.83 71.1035 134.749C70.9819 134.66 70.8786 134.542 70.7778 134.428L70.7722 134.422C70.4855 134.097 70.1945 133.775 69.9034 133.453L69.9032 133.453L69.902 133.452L69.9017 133.451C69.1915 132.666 68.4813 131.881 67.8326 131.048C67.1911 130.223 66.681 129.289 66.1779 128.368L66.1654 128.345C65.9175 127.89 65.636 127.698 65.1592 127.865C63.1317 128.573 61.0326 128.96 58.9336 129.346C57.8386 129.548 56.7437 129.749 55.6589 129.997C53.881 130.402 44.9307 131.941 44.1513 131.997C43.7717 132.024 43.3921 132.063 43.0127 132.102C42.275 132.176 41.5377 132.251 40.801 132.243C38.9184 132.222 37.073 132.425 35.2291 132.783C34.6485 132.895 34.0594 132.967 33.4706 133.038L33.4703 133.038L33.4701 133.038L33.4698 133.038L33.4695 133.038L33.4693 133.038L33.469 133.038L33.4687 133.038L33.4682 133.038C32.7952 133.12 32.1224 133.202 31.4626 133.345C29.3373 133.805 28.6254 135.619 29.1729 137.392C29.278 137.733 29.6536 138.117 29.9907 138.236C31.5281 138.78 33.1374 138.921 34.7641 138.934C35.602 138.941 36.4397 138.98 37.2774 139.018H37.2776H37.2778H37.2779C37.5974 139.033 37.9168 139.048 38.2362 139.061C39.4412 139.11 40.6462 139.16 41.8512 139.211L41.9358 139.214C42.8398 139.252 43.7438 139.289 44.6478 139.327C44.7139 139.329 44.7802 139.328 44.8464 139.327H44.8472C44.9139 139.326 44.9806 139.325 45.0471 139.328C45.3753 139.342 45.7041 139.364 46.0329 139.386C46.7522 139.435 47.4715 139.484 48.1851 139.44C49.3035 139.371 50.4179 139.239 51.5324 139.107L51.5329 139.107L51.5334 139.107L51.5339 139.107L51.5344 139.107L51.5349 139.106L51.5354 139.106L51.5359 139.106L51.5392 139.106L51.5424 139.106L51.5457 139.105L51.5489 139.105L51.5521 139.105C52.0647 139.044 52.5773 138.983 53.0903 138.928C53.4071 138.895 53.7248 138.867 54.0424 138.84L54.0428 138.84L54.0432 138.84L54.0436 138.84L54.044 138.84L54.0444 138.84L54.0448 138.839L54.0452 138.839L54.0455 138.839L54.0458 138.839L54.0461 138.839L54.0463 138.839L54.0466 138.839L54.0469 138.839L54.0472 138.839C54.6246 138.789 55.2019 138.739 55.7737 138.652L56.0624 138.609C57.5247 138.387 58.9896 138.164 60.4322 137.846C61.5522 137.599 62.6644 137.316 63.8008 137.028L63.8021 137.027L63.8034 137.027L63.8052 137.027L63.8071 137.026L63.8094 137.025L63.8097 137.025L63.8104 137.025L63.8113 137.025C64.6407 136.814 65.483 136.6 66.3508 136.394C66.4012 136.38 66.4514 136.365 66.5016 136.351C66.6101 136.319 66.7186 136.287 66.8288 136.262ZM117.549 167.088C118.238 166.099 118.89 165.083 119.521 164.056C120.096 163.122 120.633 162.166 121.169 161.21C121.65 160.354 122.148 159.508 122.647 158.663L122.647 158.662C123.804 156.7 124.962 154.738 125.891 152.644C126.426 151.438 127.046 150.27 127.665 149.102C127.961 148.545 128.257 147.988 128.543 147.427C128.678 147.162 128.816 146.899 128.953 146.635C129.33 145.914 129.707 145.192 130.031 144.447C130.276 143.883 130.49 143.305 130.705 142.728L130.705 142.727C131.035 141.84 131.364 140.953 131.802 140.122C132.505 138.787 132.971 137.377 133.438 135.966L133.439 135.965C133.59 135.507 133.741 135.05 133.901 134.594C133.926 134.524 133.942 134.45 133.957 134.376C133.965 134.342 133.972 134.307 133.98 134.273C133.943 134.281 133.905 134.287 133.867 134.294C133.784 134.308 133.701 134.322 133.621 134.346C133.46 134.393 133.301 134.451 133.142 134.509C132.811 134.63 132.481 134.75 132.143 134.777C130.879 134.876 129.609 134.919 128.341 134.918C127.558 134.918 126.775 134.887 125.991 134.856H125.991H125.99H125.99H125.99H125.99H125.989H125.989C125.484 134.836 124.978 134.816 124.472 134.805C124.378 134.802 124.231 134.92 124.193 135.016L124.054 135.367L124.054 135.367C123.738 136.166 123.421 136.965 123.144 137.778C122.455 139.803 121.787 141.835 121.126 143.869C120.288 146.452 119.256 148.944 118.12 151.418C117.065 153.711 116.28 156.152 115.781 158.666C115.548 159.839 115.203 160.991 114.859 162.141L114.859 162.141L114.811 162.303L114.743 162.53C114.699 162.678 114.655 162.826 114.612 162.973C114.357 163.843 114.075 164.705 113.794 165.568L113.793 165.568L113.793 165.569C113.691 165.881 113.59 166.192 113.489 166.504C113.259 167.219 113.461 167.886 114.023 167.973C114.649 168.07 115.296 168.034 116 167.99C116.639 167.901 117.188 167.607 117.549 167.088ZM25.5432 142.52C26.238 141.377 26.9538 140.342 28.3663 140.033C28.8907 139.919 28.9196 139.646 28.5721 139.206C28.496 139.11 28.4157 139.015 28.3349 138.918L28.3348 138.918L28.3345 138.918C28.0441 138.572 27.7482 138.219 27.6229 137.818C27.4874 137.385 27.5138 136.895 27.5398 136.414C27.5465 136.29 27.5531 136.166 27.557 136.045C27.603 134.591 28.0135 133.35 29.4531 132.644C29.8802 132.434 30.1367 132.119 29.7083 131.501C28.7428 130.108 27.4633 129.122 26.0527 128.268C25.4997 127.933 24.9905 128.132 24.7707 128.717C24.6752 128.971 24.5785 129.225 24.4818 129.478C24.1763 130.28 23.8707 131.082 23.5998 131.896C23.3023 132.789 23.0193 133.687 22.7363 134.585L22.7362 134.585C22.4374 135.533 22.1387 136.481 21.8229 137.423C21.5622 138.201 21.3327 138.988 21.1031 139.776L21.103 139.776C20.6881 141.198 20.273 142.621 19.6729 143.995C18.2911 147.158 17.1743 150.428 16.6458 153.865C16.6179 154.046 16.6568 154.358 16.7643 154.413C16.9278 154.496 17.2071 154.466 17.3859 154.378C17.6841 154.233 17.9973 154.05 18.206 153.801C18.8613 153.019 19.4708 152.198 20.098 151.259C20.6175 150.427 21.1389 149.598 21.6603 148.768C22.9649 146.691 24.2695 144.615 25.5432 142.52ZM123.352 169.458C123.226 169.426 123.1 169.395 122.974 169.365C121.816 169.083 120.667 168.803 119.996 167.607C119.68 167.043 119.403 167.086 119.084 167.706C118.807 168.243 118.464 168.715 117.918 168.995C117.627 169.144 117.319 169.265 117.01 169.374C115.478 169.917 113.988 169.986 112.644 168.888C111.989 168.352 111.776 168.401 111.265 169.067C110.438 170.145 110.015 171.402 109.593 172.653L109.557 172.76C109.102 174.107 109.349 174.389 110.781 174.389H136.467C136.521 174.389 136.577 174.394 136.633 174.399C136.762 174.41 136.89 174.421 136.992 174.374C137.124 174.313 137.3 174.025 137.278 174.001C137.184 173.898 137.092 173.788 137 173.679L136.999 173.678L136.999 173.678C136.717 173.343 136.43 173.003 136.067 172.818C135.342 172.451 134.53 172.233 133.735 172.032C130.8 171.289 127.857 170.579 124.784 169.856C124.639 169.816 124.495 169.774 124.35 169.733L124.343 169.731L124.337 169.729C124.009 169.636 123.682 169.542 123.352 169.458ZM173.584 120.102C173.614 120.214 173.749 120.298 173.884 120.383C173.946 120.422 174.008 120.461 174.06 120.502C174.093 120.455 174.135 120.407 174.178 120.36C174.269 120.257 174.361 120.154 174.366 120.047C174.373 119.904 174.382 119.76 174.392 119.615C174.429 119.054 174.467 118.486 174.356 117.952C174.139 116.909 173.798 115.882 173.411 114.887C173.314 114.638 173.43 114.519 173.538 114.408C173.617 114.327 173.692 114.25 173.68 114.13C173.749 114.175 173.824 114.216 173.898 114.257C174.068 114.35 174.238 114.443 174.35 114.583C174.449 114.706 174.495 114.871 174.54 115.036C174.568 115.135 174.595 115.234 174.634 115.325L174.698 115.475L174.798 115.712C175.062 116.339 175.327 116.966 175.634 117.573C175.688 117.681 175.852 117.733 176.016 117.785C176.091 117.809 176.166 117.833 176.231 117.863C176.259 117.802 176.294 117.741 176.329 117.679C176.406 117.545 176.482 117.411 176.481 117.278C176.475 116.675 176.427 116.069 176.356 115.469C176.344 115.375 176.334 115.279 176.324 115.183V115.183C176.279 114.751 176.233 114.31 176.066 113.927C175.558 112.76 175.018 111.597 174.37 110.505C173.96 109.814 173.403 109.167 172.784 108.655C172.234 108.2 171.602 107.843 170.971 107.488L170.971 107.488C170.802 107.393 170.634 107.298 170.468 107.202C169.451 106.612 168.42 106.046 167.387 105.486C167.376 105.48 167.365 105.473 167.353 105.467C167.233 105.398 167.09 105.316 166.963 105.594C166.724 106.117 166.47 106.633 166.217 107.149C165.821 107.954 165.425 108.759 165.085 109.587C165.078 109.605 165.07 109.624 165.062 109.643C164.929 109.959 164.694 110.518 165.414 110.827C166.188 111.158 166.948 111.635 167.558 112.213C169.353 113.913 170.163 116.186 170.967 118.443L171.03 118.62C171.185 119.054 171.296 119.504 171.406 119.954L171.406 119.954L171.406 119.954L171.406 119.954L171.407 119.954L171.407 119.954L171.407 119.955L171.407 119.955C171.459 120.168 171.512 120.382 171.569 120.594C171.582 120.64 171.595 120.685 171.609 120.73L171.625 120.78L171.639 120.824C171.651 120.859 171.662 120.894 171.673 120.929C171.711 120.902 171.755 120.877 171.798 120.852C171.893 120.798 171.988 120.744 172.021 120.664C172.36 119.85 172.462 119.031 172.209 118.146C172.008 117.443 171.936 116.699 171.865 115.966V115.966L171.858 115.899C171.849 115.81 171.974 115.707 172.099 115.604C172.157 115.557 172.214 115.509 172.259 115.463C172.289 115.503 172.324 115.541 172.359 115.579C172.434 115.663 172.51 115.746 172.537 115.843C172.594 116.048 172.647 116.255 172.701 116.465C172.799 116.848 172.901 117.242 173.034 117.663C173.081 117.876 173.126 118.089 173.171 118.302C173.298 118.905 173.425 119.507 173.584 120.102ZM165.723 105.832L165.723 105.832C166 105.297 166.277 104.761 166.292 104.086C166.306 103.469 166.194 103.138 165.696 102.833C165.168 102.511 164.567 102.318 164.098 102.688C163.031 103.529 162.047 104.506 161.476 105.757C161.117 106.546 160.858 107.38 160.6 108.214C160.511 108.5 160.422 108.786 160.33 109.07C160.277 109.231 160.302 109.432 160.336 109.606C160.542 110.647 161.319 111.162 162.184 111.598C162.64 111.829 162.977 111.714 163.182 111.264L163.275 111.058C163.311 110.977 163.348 110.896 163.384 110.815L163.505 110.547L163.599 110.335L163.6 110.334C163.89 109.684 164.186 109.023 164.516 108.332C164.607 108.145 164.701 107.959 164.796 107.774C165.007 107.355 165.219 106.936 165.399 106.504C165.494 106.274 165.609 106.053 165.723 105.832ZM15.1827 153.5C15.6589 152.366 16.1111 151.217 16.4926 150.048C16.7476 149.266 16.9726 148.474 17.1975 147.683L17.1975 147.682C17.4012 146.965 17.6049 146.249 17.8311 145.539C18.1859 144.425 18.5581 143.317 18.9302 142.208L18.9304 142.208L18.9305 142.208C19.2784 141.172 19.6262 140.136 19.9599 139.095C20.5845 137.148 21.1936 135.196 21.8027 133.244L21.8028 133.244L21.8028 133.244L21.8029 133.244L21.8029 133.244L21.803 133.243L21.8031 133.243L21.8035 133.242C22.0774 132.364 22.3514 131.486 22.6267 130.609C22.6992 130.378 22.7728 130.147 22.8463 129.916C23.0418 129.303 23.2372 128.691 23.4124 128.072C23.4384 127.98 23.3856 127.866 23.3327 127.752C23.3082 127.699 23.2838 127.646 23.2671 127.595C23.213 127.631 23.1504 127.663 23.0878 127.695C22.9524 127.764 22.817 127.833 22.7675 127.941C22.2989 128.966 21.841 129.999 21.4365 131.052C21.0642 132.02 20.7319 133.005 20.3997 133.989L20.3968 133.998L20.396 134C20.3417 134.161 20.2874 134.322 20.2328 134.483C20.1714 134.664 20.1097 134.845 20.048 135.027L20.047 135.03C19.6983 136.055 19.3495 137.08 19.039 138.117C18.7177 139.19 18.4131 140.268 18.1085 141.347L18.1083 141.347C17.8854 142.137 17.6624 142.926 17.4328 143.713C17.3486 144.002 17.2651 144.292 17.1816 144.581C16.8305 145.798 16.4793 147.014 16.0703 148.211C15.8156 148.957 15.5463 149.697 15.276 150.44L15.2759 150.44C14.8984 151.478 14.5189 152.521 14.1744 153.591C14.674 154.251 14.8651 154.257 15.1827 153.5ZM128.046 176.855C128.349 176.834 128.651 176.812 128.953 176.79L128.955 176.789C129.622 176.74 130.288 176.691 130.956 176.658C131.836 176.615 132.717 176.577 133.599 176.538H133.599H133.599H133.599H133.599H133.6H133.6C134.765 176.488 135.93 176.437 137.094 176.375C137.186 176.371 137.274 176.279 137.361 176.187C137.401 176.145 137.442 176.102 137.483 176.068C137.448 176.047 137.413 176.024 137.379 176C137.299 175.946 137.219 175.892 137.13 175.862C137.061 175.838 136.983 175.844 136.904 175.85L136.877 175.852L136.85 175.854C136.833 175.855 136.817 175.855 136.8 175.855H110.337C110.308 175.855 110.275 175.852 110.243 175.849L110.204 175.845C110.104 175.833 110.003 175.821 109.947 175.866C109.757 176.019 109.587 176.215 109.472 176.427C109.448 176.472 109.677 176.742 109.82 176.773C110.213 176.861 110.622 176.915 111.025 176.916C116.676 176.924 122.328 176.922 128.046 176.855ZM169.378 177.644C168.31 178.075 167.243 178.494 166.18 178.912L166.179 178.912L166.179 178.913L166.179 178.913L166.178 178.913L166.178 178.913L166.177 178.913L166.177 178.913C164.153 179.709 162.141 180.501 160.156 181.354C158.799 181.938 157.44 182.028 156.027 181.986C155.906 181.982 155.787 181.955 155.667 181.928C155.539 181.899 155.411 181.87 155.283 181.871C155.179 181.871 155.076 181.928 154.972 181.985C154.946 181.999 154.919 182.014 154.893 182.028C154.88 182.034 154.867 182.041 154.854 182.047L154.833 182.057C154.857 182.095 154.879 182.135 154.901 182.176C154.95 182.265 154.999 182.355 155.071 182.419C155.275 182.602 155.488 182.789 155.728 182.915C157.56 183.874 158.618 186.492 157.971 188.457C157.653 189.421 157.269 190.445 156.626 191.196C156.102 191.807 155.19 192.21 154.376 192.421C153.09 192.755 151.749 192.765 150.452 192.295C149.319 191.884 148.506 191.124 147.906 190.096C146.448 187.598 147.047 185.431 148.597 183.415C148.801 183.15 149.129 182.983 149.459 182.815C149.644 182.721 149.83 182.627 149.995 182.515C150.113 182.435 150.204 182.317 150.294 182.199L150.295 182.199L150.331 182.152C150.343 182.137 150.355 182.122 150.367 182.107C150.385 182.084 150.403 182.062 150.422 182.041C150.349 182.023 150.276 182.002 150.203 181.98C150.036 181.931 149.869 181.882 149.7 181.875C149.584 181.87 149.467 181.9 149.35 181.93L149.349 181.93C149.24 181.958 149.131 181.986 149.021 181.986L144.906 181.988C135.56 181.994 126.215 182 116.87 181.985C114.614 181.981 112.358 181.948 110.102 181.914C108.774 181.894 107.446 181.875 106.119 181.861C105.138 181.851 104.157 181.853 103.175 181.856C102.729 181.857 102.282 181.858 101.836 181.858C101.74 181.858 101.643 181.858 101.547 181.857C101.281 181.856 101.014 181.854 100.748 181.864C100.693 181.867 100.638 181.904 100.584 181.942L100.56 181.959L100.549 181.966C100.536 181.975 100.523 181.984 100.509 181.991C100.533 182.008 100.557 182.025 100.581 182.043L100.581 182.043L100.581 182.043C100.632 182.08 100.683 182.117 100.737 182.151C100.961 182.29 101.195 182.418 101.43 182.546L101.43 182.547C101.935 182.822 102.439 183.098 102.835 183.484C105.543 186.127 104.67 191.351 100.618 192.398C97.3395 193.245 94.4426 192.154 93.4694 188.261C92.8695 185.861 94.4736 182.999 96.8998 182.25C97.0048 182.217 97.0954 182.138 97.1859 182.059C97.2281 182.022 97.2702 181.985 97.3139 181.953C97.2693 181.929 97.2248 181.899 97.1803 181.868L97.18 181.868C97.0843 181.802 96.9886 181.736 96.8927 181.735C93.6943 181.723 90.6968 180.793 87.7571 179.681C83.8082 178.187 79.969 176.445 76.4143 174.146L76.3465 174.102C75.6898 173.678 75.0122 173.241 74.7803 172.354C74.3463 170.694 75.1855 169.414 76.7353 168.994C78.3856 168.545 79.9677 169.017 81.5262 169.517C84.2326 170.385 86.937 171.259 89.6414 172.134C91.1427 172.619 92.6441 173.104 94.1458 173.589L94.3432 173.652C95.1583 173.915 95.9737 174.179 96.7958 174.418C97.0974 174.506 97.4225 174.551 97.7371 174.552C99.0935 174.557 100.45 174.558 101.806 174.559C103.157 174.559 104.507 174.56 105.858 174.565C106.058 174.566 106.402 174.622 106.432 174.723C106.494 174.941 106.494 175.178 106.493 175.415L106.493 175.477L106.493 175.536C106.493 175.557 106.493 175.577 106.494 175.597L106.494 175.637C106.495 175.655 106.495 175.673 106.496 175.691C106.476 175.684 106.456 175.675 106.436 175.666C106.393 175.646 106.349 175.627 106.308 175.63C106.212 175.639 106.117 175.65 106.021 175.661C105.965 175.668 105.908 175.675 105.851 175.682L105.85 175.682C105.622 175.71 105.395 175.738 105.167 175.749C104.376 175.79 103.585 175.827 102.793 175.864C101.735 175.913 100.677 175.962 99.6198 176.021C97.7488 176.126 95.9844 175.599 94.2359 175.076L94.2357 175.076L94.2197 175.072C92.8625 174.666 91.5224 174.204 90.1823 173.742L90.1819 173.742C89.4246 173.48 88.6673 173.219 87.9068 172.968C86.9568 172.654 86.0043 172.348 85.0518 172.042L85.051 172.042L85.0502 172.042L85.0493 172.042L85.0485 172.041L85.0476 172.041L85.0468 172.041L85.0459 172.04C83.9452 171.687 82.8445 171.333 81.7477 170.968C81.4708 170.876 81.2006 170.752 80.9312 170.63C80.5017 170.434 80.0743 170.239 79.6254 170.172C78.8 170.05 77.9165 170.116 77.0936 170.278C76.7719 170.342 76.4117 170.854 76.3103 171.226C76.175 171.724 76.267 172.214 76.8493 172.585C79.5524 174.303 82.4016 175.728 85.3277 177.021C87.986 178.195 90.7303 179.11 93.5336 179.857C93.9832 179.977 94.4697 179.986 94.9402 179.995C96.0119 180.015 97.0839 180.029 98.1558 180.042L98.1631 180.042C99.9773 180.065 101.792 180.087 103.605 180.142C105.613 180.204 107.619 180.301 109.626 180.398C110.559 180.444 111.493 180.489 112.426 180.531C113.254 180.568 114.081 180.603 114.909 180.639C116.108 180.691 117.307 180.743 118.506 180.798C118.765 180.81 119.024 180.832 119.283 180.853C119.738 180.891 120.194 180.929 120.647 180.915C121.045 180.902 121.442 180.847 121.838 180.792C122.181 180.744 122.524 180.697 122.868 180.676C123.101 180.663 123.336 180.697 123.571 180.732C123.762 180.76 123.953 180.788 124.144 180.79C124.373 180.793 124.603 180.797 124.833 180.801C125.89 180.818 126.949 180.835 128.004 180.785C128.914 180.741 129.823 180.669 130.732 180.598H130.732H130.732H130.733H130.733H130.733H130.733H130.733L130.735 180.598C131.611 180.528 132.487 180.459 133.365 180.416C133.625 180.403 133.889 180.467 134.153 180.532C134.386 180.59 134.619 180.647 134.851 180.652C136.448 180.684 138.047 180.681 139.644 180.659C141.201 180.637 142.759 180.596 144.314 180.522C144.623 180.507 144.933 180.454 145.242 180.4C145.699 180.321 146.154 180.243 146.598 180.291C148.378 180.484 150.163 180.533 151.947 180.582H151.947H151.947C153.172 180.616 154.397 180.649 155.617 180.729C157.822 180.874 159.775 180.348 161.708 179.557C164.325 178.488 166.921 177.355 169.468 176.129C171.061 175.362 172.58 174.439 174.094 173.519L174.371 173.351C175.336 172.765 176.072 171.938 176.375 170.802C176.527 170.229 176.208 169.791 175.634 169.778C173.852 169.739 172.225 170.358 170.608 170.98C168.255 171.886 165.913 172.817 163.578 173.767C162.636 174.15 161.701 174.551 160.766 174.952L160.765 174.952L160.765 174.953L160.764 174.953L160.763 174.953L160.762 174.954L160.761 174.954L160.759 174.955L160.757 174.956L160.757 174.956L160.756 174.956L160.756 174.957L160.755 174.957L160.755 174.957C160.055 175.257 159.355 175.557 158.652 175.85C158.407 175.952 158.123 176.01 157.857 176.011C155.631 176.02 153.406 176.019 151.181 176.019H151.17L149.928 176.018L149.336 176.018C148.723 176.018 148.11 176.018 147.497 176.018C145.839 176.019 144.181 176.019 142.524 176.016C141.956 176.015 141.389 175.997 140.822 175.975C140.786 175.974 140.727 175.884 140.723 175.831C140.718 175.758 140.721 175.684 140.724 175.61C140.728 175.506 140.732 175.402 140.713 175.302C140.636 174.876 140.819 174.811 141.211 174.814C144.006 174.832 146.802 174.841 149.598 174.819C149.876 174.816 150.155 174.814 150.433 174.812H150.434C152.8 174.795 155.168 174.777 157.529 174.657C158.278 174.619 159.033 174.293 159.75 173.983C159.811 173.957 159.872 173.93 159.933 173.904C164.025 172.149 168.159 170.502 172.419 169.195C173.191 168.958 174.012 168.869 174.826 168.78L174.827 168.78C174.919 168.77 175.011 168.76 175.102 168.75C175.164 168.743 175.225 168.736 175.286 168.729C175.841 168.665 176.43 168.625 176.967 168.739C177.822 168.921 178.177 169.741 177.915 170.597C177.441 172.155 176.491 173.34 175.11 174.181C174.125 174.782 173.136 175.377 172.141 175.975L172.135 175.979L172.111 175.994L172.108 175.995C171.203 176.54 170.293 177.087 169.378 177.644ZM155.764 184.845C154.208 183.151 152.41 182.84 150.266 184.079C149.027 184.794 148.484 186.478 148.588 187.545C148.7 188.694 149.274 189.646 150.151 190.392C151.203 191.287 152.434 191.289 153.701 191.016C156.516 190.411 157.36 186.756 155.764 184.845ZM95.0514 186.703C95.0514 186.824 95.0493 186.945 95.0471 187.066C95.0424 187.328 95.0378 187.591 95.055 187.851C95.1974 190.002 97.6944 191.674 99.8961 191.041C101.463 190.59 102.367 189.654 102.687 188.011C103.178 185.49 101.613 183.674 99.45 183.361C97.3138 183.052 95.5563 184.231 95.0514 186.703ZM112.169 194.334H117.112H141.679C142.833 194.334 143.986 194.334 145.14 194.334H145.152C150.634 194.335 156.116 194.336 161.598 194.317C161.956 194.315 162.35 194.109 162.645 193.906C162.724 193.852 162.556 193.42 162.393 193.234C162.282 193.108 161.981 193.063 161.765 193.063C144.197 193.058 126.628 193.056 109.06 193.055C102.216 193.055 95.3727 193.054 88.5292 193.054C88.2746 193.054 88.02 193.037 87.7655 193.019L87.7652 193.019C87.6742 193.013 87.5832 193.007 87.4923 193.002C87.0708 192.977 86.5247 193.538 86.6987 193.86C86.9486 194.323 87.4613 194.334 87.9636 194.334C96.009 194.334 104.054 194.334 112.138 194.334H112.143H112.148H112.153H112.159H112.164H112.169ZM68.249 194.663L64.9273 194.663H64.9219H64.9166H64.9113H64.9059H64.9006C60.0162 194.663 55.1676 194.663 50.319 194.661C50.2681 194.661 50.2163 194.662 50.1646 194.664C49.8373 194.675 49.5109 194.685 49.3804 194.259C49.2292 193.766 49.4364 193.407 49.9871 193.343C50.0916 193.33 50.1983 193.334 50.3049 193.337L50.3659 193.339C50.3945 193.339 50.4231 193.34 50.4516 193.34L55.5404 193.34C64.1594 193.34 72.7784 193.34 81.3974 193.338L81.4464 193.338L81.482 193.338C81.9285 193.335 82.3507 193.333 82.3318 193.936C82.3161 194.435 82.02 194.662 81.3313 194.662L71.3937 194.663H68.249ZM184.028 194.665L187.555 194.665L189.789 194.665H189.795H189.802H189.808H189.815C192.647 194.665 195.446 194.666 198.245 194.659C198.536 194.659 198.832 194.6 199.116 194.534C199.195 194.516 199.273 194.379 199.292 194.287C199.436 193.575 199.204 193.343 198.37 193.343L167.431 193.342C167.382 193.342 167.333 193.34 167.284 193.338C167.177 193.334 167.07 193.329 166.967 193.346C166.399 193.442 166.196 193.836 166.422 194.314C166.595 194.679 166.916 194.672 167.238 194.665C167.282 194.664 167.327 194.663 167.372 194.663C172.905 194.665 178.438 194.665 184.009 194.665H184.014H184.018H184.023H184.028ZM159.998 18.0865C160.114 18.0746 160.658 18.1593 161.329 18.2637C162.246 18.4065 163.401 18.5862 164.02 18.6061C164.64 18.626 164.051 19.29 163.949 19.2944C162.581 19.3525 159.616 18.4491 159.998 18.0865ZM161.997 23.3255C161.418 23.1061 161.695 21.3311 162.269 21.3311C162.837 21.3311 162.563 23.5396 161.997 23.3255ZM153.649 186.078C154.15 187.215 154.116 187.68 153.52 188.298C153.112 188.72 152.374 188.791 151.911 188.454C151.417 188.093 151.188 187.241 151.427 186.65C151.846 185.61 152.767 185.356 153.649 186.078ZM99.9946 186.166C99.2164 185.445 98.441 185.485 97.4889 186.419C97.1421 187.221 97.3122 188.072 98.5976 188.299C99.29 188.421 99.7001 188.216 100.082 187.802C100.48 187.371 100.367 186.51 99.9946 186.166Z" fill="#00160A"/>
<path fill-rule="evenodd" clip-rule="evenodd" d="M145.158 41.4217C144 41.082 143.726 39.3267 142.558 39.0235C141.403 38.7236 140.294 40.0913 139.142 39.779C138.359 39.5666 137.993 38.702 137.56 38.0163C137.138 37.3492 136.249 36.747 135.615 37.1776L135.562 37.2159C134.682 37.9099 133.362 37.4715 132.475 36.7852C131.589 36.0988 130.837 35.1737 129.773 34.8207C130.331 34.2692 131.3 34.6693 131.841 35.2384C132.382 35.8074 132.822 36.5572 133.574 36.7848C134.726 37.1336 136.023 36.064 137.11 36.58C137.786 36.9009 138.061 37.6936 138.465 38.3229C138.87 38.9521 139.751 39.4794 140.325 39.0004C141.72 37.8376 144.212 38.5747 144.749 40.3088C144.905 40.8118 145.594 41.5497 145.158 41.4217Z" fill="#E7EAEE"/>
<path fill-rule="evenodd" clip-rule="evenodd" d="M76.1169 173.215C79.3325 175.11 89.4055 180.69 96.7895 180.875L157.864 181.067C157.864 181.067 189.979 169.773 166.499 174.035C165.17 174.276 161.364 176.552 155.245 177.048C144.058 177.955 96.7895 177.375 96.7895 177.375C96.7895 177.375 75.271 172.717 76.1169 173.215Z" fill="#E7EAEE"/>
<path fill-rule="evenodd" clip-rule="evenodd" d="M23.6657 135.642C23.7408 135.558 23.8322 135.499 23.8887 135.522C24.5319 135.788 24.9029 135.557 25.0983 134.922C25.1307 134.816 25.2959 134.751 25.3997 134.667C25.4952 134.795 25.671 134.922 25.6714 135.049C25.6728 135.473 25.8566 135.672 26.2591 135.798C26.4308 135.852 26.5323 136.126 26.6657 136.301C26.5313 136.332 26.3287 136.321 26.277 136.403C26.1719 136.57 26.1168 136.785 26.101 136.985C26.0875 137.155 26.1727 137.331 26.1876 137.506C26.2072 137.736 26.1702 137.905 25.8991 137.673C25.3576 137.21 24.8878 137.384 24.4253 137.82C24.3132 137.926 24.1159 137.943 23.9577 138.001C23.9866 137.857 23.9953 137.705 24.0479 137.57C24.3238 136.864 24.1332 136.257 23.6657 135.642Z" fill="#FFB61D"/>
</svg>
