<svg width="200" height="159" viewBox="0 0 200 159" fill="none" xmlns="http://www.w3.org/2000/svg">
<path fill-rule="evenodd" clip-rule="evenodd" d="M92.1242 153.87C83.5492 158.166 73.4962 158.516 63.9835 157.293C45.5673 154.924 26.9697 145.996 17.8127 129.843C13.8629 122.876 11.868 114.975 10.4782 107.088C8.62203 96.5535 7.87223 85.2288 12.5365 75.603C16.4686 67.4882 23.7658 61.5832 31.0359 56.2488C38.6555 50.658 46.9096 45.2223 56.2939 44.105C83.3647 43.5689 80.6224 53.7382 108.894 37.5644C117.112 32.8626 141.547 40.9334 149.803 43.5689C158.059 46.2043 174.35 54.335 185.399 63.9936C190.017 68.0309 194.277 72.6513 196.872 78.2093C200.758 86.531 200.57 96.2252 198.757 105.229C196.928 114.31 192.957 123.756 184.892 128.314C181.248 130.373 177.047 131.256 172.875 131.594C155.453 133.005 136.92 125.567 120.977 132.732C110.063 137.637 102.822 148.51 92.1242 153.87Z" fill="#50BEFF"/>
<path fill-rule="evenodd" clip-rule="evenodd" d="M115.927 129.097C130.076 124.431 145.408 129.838 160.305 129.638C166.905 129.55 173.96 128.094 178.503 123.306C168.552 117.447 160.998 108.129 155.496 97.9755C149.994 87.8223 146.377 76.7762 142.789 65.7994C138.068 63.1078 131.992 67.6597 126.81 66.0226C124.163 65.1861 121 62.9136 119.1 64.9385C117.953 66.1608 115.817 65.4417 114.701 64.1908C113.586 62.9398 112.964 61.2768 111.706 60.1691C110.448 59.0614 108.061 58.9218 107.421 60.4709C106.312 63.1526 105.144 65.9225 103.02 67.8986C100.895 69.8747 97.5262 70.8286 95.0376 69.3365C93.0936 68.1709 92.1761 65.9029 91.0438 63.9394C89.9115 61.9759 89.4698 60.2107 87.2182 60.4709C79.6125 76.4955 73.9343 92.2485 64.5777 107.318C60.5571 113.793 38.0616 138.478 24.9904 135.297C11.9193 132.116 12.8891 129.638 8.47493 125.727C13.073 135.081 21.1957 142.441 30.4703 147.199C39.7448 151.956 50.1327 154.244 60.5234 155.07C64.6235 155.396 68.7821 155.499 72.818 154.705C89.3576 151.455 99.9191 134.375 115.927 129.097Z" fill="white"/>
<path fill-rule="evenodd" clip-rule="evenodd" d="M121.136 20.7412C120.798 20.6327 120.444 20.5093 120.213 20.2392C119.882 19.8505 119.904 19.2825 119.944 18.7735C120.338 13.7437 120.732 8.71384 121.126 3.68402C121.171 3.1012 121.743 2.67147 122.321 2.58541C122.9 2.49935 123.481 2.67446 124.04 2.84754C127.642 3.96395 131.244 5.08036 134.846 6.19677C135.725 6.46924 135.771 7.6895 135.586 8.59105C135.401 9.4926 135.262 10.6502 136.049 11.1273C141.302 14.312 146.884 16.9538 152.678 18.9972C153.052 19.1293 153.08 19.6987 152.818 19.9975C152.556 20.2962 152.139 20.3926 151.751 20.4755C145.869 21.7305 140.113 23.5767 134.599 25.9771C133.828 26.313 132.82 26.6199 132.238 26.0125C131.823 25.5804 131.863 24.9048 131.828 24.3071C131.793 23.7094 131.529 22.9936 130.935 22.9181C127.611 22.4957 124.326 21.7659 121.136 20.7412ZM133.476 10.5391C134.282 9.2631 133.707 7.33427 132.335 6.70699C129.079 5.21936 125.663 4.0846 122.165 3.32898C122.746 4.22605 122.715 5.37351 122.664 6.44132C122.467 10.5415 122.264 14.6795 121.194 18.6424C121.101 18.985 121.542 19.2079 121.888 19.2854C124.991 19.9792 128.117 20.5689 131.259 21.0534C131 18.025 130.741 14.9967 130.483 11.9683C130.454 11.6317 130.427 11.2801 130.555 10.9676C130.763 10.4612 131.34 10.186 131.887 10.1704C132.434 10.1549 132.963 10.3484 133.476 10.5391ZM132.802 12.9256C133.049 16.479 133.296 20.0323 133.543 23.5856C133.565 23.8971 133.601 24.2409 133.832 24.4518C138.84 22.3727 144.029 20.7276 149.321 19.541C143.587 17.8946 138.75 13.3907 132.802 12.9256Z" fill="#3287BF"/>
<path fill-rule="evenodd" clip-rule="evenodd" d="M82.7407 153.983C74.1657 158.28 64.1127 158.63 54.6 157.406C36.1838 155.037 17.5862 146.109 8.4292 129.956C4.47938 122.989 2.48449 115.089 1.09467 107.201C0.332177 102.874 -1.14864 96.3926 1.56286 93.4509C2.16871 92.7936 19.1886 79.0871 25.8368 69.7837C28.6872 65.795 32.8664 62.0025 37.8184 61.2708C43.5934 60.4176 48.8971 64.3989 53.095 68.4555C58.8944 74.0598 64.0991 80.2791 68.5935 86.9755C63.6407 84.8714 60.0762 80.4985 56.7862 76.2401C53.4963 71.9818 50.0968 67.526 45.2804 65.1262C40.4641 62.7263 33.7754 63.126 30.6473 67.5046C23.1916 77.9408 13.7602 86.9605 3.00178 93.9434C2.19261 94.4686 2.11945 95.6041 2.1346 96.5687C2.30949 107.703 3.5543 120.382 12.4613 127.065C19.9008 132.647 30.7003 131.919 38.8495 127.436C46.9987 122.954 52.9586 115.372 58.0753 107.606C73.0843 84.8229 82.8301 58.7815 98.9624 36.7799C102.671 31.7221 107.04 26.6641 113.015 24.7574C117.002 23.4852 118.12 18.3979 118.046 14.2137C117.973 10.0294 117.577 5.27218 120.482 2.26013C119.87 9.21833 119.258 16.1765 118.645 23.1347C127.569 27.5652 132.781 36.998 136.606 46.1974C142.287 59.8581 146.143 74.2368 152.123 87.769C158.103 101.301 166.592 114.304 179.14 122.141C184.948 114.58 188.26 102.474 188.26 95.5567C184.948 91.9466 180.243 86.2993 174.738 83.7565C168.176 80.7252 160.977 86.0396 155.706 90.9854C158.619 86.5508 162.117 81.8827 167.272 80.6268C171.434 79.613 175.888 81.1252 179.34 83.6599C182.793 86.1946 185.426 89.6639 188.007 93.082C190.617 93.9434 191.186 96.3386 189.373 105.342C187.544 114.424 183.574 123.869 175.509 128.427C171.865 130.486 167.663 131.369 163.491 131.707C146.069 133.118 127.537 125.68 111.594 132.845C100.679 137.75 93.439 148.623 82.7407 153.983ZM115.583 129.4C129.732 124.735 145.064 130.142 159.961 129.942C166.561 129.854 173.616 128.397 178.159 123.61C168.208 117.75 160.654 108.433 155.152 98.2793C149.65 88.126 146.033 77.08 142.445 66.1032C137.724 63.4116 131.648 67.9635 126.466 66.3264C123.819 65.4899 120.656 63.2174 118.756 65.2423C117.609 66.4646 115.473 65.7455 114.358 64.4946C113.242 63.2436 112.62 61.5806 111.362 60.4729C110.104 59.3652 107.717 59.2256 107.077 60.7747C105.968 63.4564 104.8 66.2263 102.676 68.2024C100.551 70.1785 97.1822 71.1323 94.6936 69.6403C92.7497 68.4747 91.8321 66.2067 90.6998 64.2432C89.5676 62.2797 87.6921 60.3166 85.4405 60.5769C77.8348 76.6015 69.3268 92.1978 59.9702 107.267C55.9496 113.743 51.6942 120.212 45.9356 125.206C40.1771 130.2 32.6571 133.616 25.0666 132.921C18.9414 132.361 13.3775 129.241 8.13096 126.03C12.729 135.385 20.8518 142.745 30.1263 147.502C39.4008 152.26 49.7887 154.547 60.1794 155.374C64.2796 155.7 68.4381 155.802 72.474 155.009C89.0137 151.758 99.5751 134.679 115.583 129.4ZM101.106 65.7221C102.556 63.8496 103.461 61.5968 104.955 59.7592C106.448 57.9215 108.873 56.497 111.132 57.2067C113.234 57.8672 114.391 60.0607 115.328 62.055C115.799 63.0563 117.229 63.1338 118.26 62.7323C119.291 62.3308 120.218 61.6048 121.318 61.4848C123.594 61.2365 125.308 63.5938 127.532 64.1366C130.841 64.9443 134.167 61.5672 137.438 62.5202C138.822 62.9235 140.02 64.0805 141.458 63.9817C138.692 57.3515 136.624 50.823 133.72 44.2521C130.816 37.6811 124.508 26.0605 119.462 25.4124C114.358 24.757 106.548 30.6002 102.888 34.5913C99.228 38.5823 96.2681 43.1564 93.4312 47.7689C91.0022 51.7181 88.6491 55.7139 86.3736 59.7536C89.4249 59.3204 92.0827 61.8259 93.8091 64.3789C94.8421 65.9064 96.072 67.7263 97.916 67.7196C99.2161 67.7148 100.311 66.7503 101.106 65.7221Z" fill="#00160A"/>
</svg>
