<svg width="180" height="181" viewBox="0 0 180 181" fill="none" xmlns="http://www.w3.org/2000/svg">
<path d="M50.1188 46.468C52.5984 51.7027 54.2528 57.3316 54.9588 63.0749C55.7669 70.5434 54.827 78.3424 57.549 85.5099C60.6792 93.8176 69.7553 99.2261 78.5677 98.4716C81.8213 110.827 84.3434 123.374 86.134 136.017C86.2233 136.912 86.9931 137.425 87.7289 137.785C89.4896 134.089 89.9873 129.943 91.2589 126.074C94.823 115.091 99.8629 104.529 106.579 95.1019C109.968 96.9415 114.004 97.8443 117.811 96.8737C122.834 95.6233 126.9 91.8382 129.447 87.4555C131.612 83.5263 133.905 79.5886 137.103 76.3927C138.064 75.4093 139.229 74.6506 140.476 74.0784C132.931 71.7387 124.748 70.5391 116.969 72.4253C111.695 73.663 106.804 77.0285 104.38 81.941C102.989 84.6453 102.844 87.9132 104.052 90.7107C107.629 86.0525 111.729 81.674 116.773 78.5713C120.984 76.0027 125.96 74.142 130.961 74.8159C128.082 75.0956 125.496 76.4774 122.791 77.3887C114.834 81.1102 108.756 87.7988 103.665 94.7713C98.8252 101.511 94.8996 108.86 91.5226 116.422C88.1414 104.69 83.7522 93.2242 78.1935 82.3437C75.6926 77.4608 73.0897 72.6076 69.8234 68.1825C67.246 64.5457 64.2263 61.265 61.1513 58.0522C63.1375 59.4933 64.9111 61.1972 66.6506 62.9181C75.8245 72.0862 82.7783 83.3525 87.4014 95.4283C89.5024 94.4068 91.6545 93.3132 93.2409 91.5584C95.6439 88.922 96.7284 85.3404 96.924 81.8435C97.1707 76.914 96.1415 71.7895 93.3514 67.6484C89.3535 61.46 83.1185 57.0815 76.5603 53.911C68.2497 49.9649 59.2289 47.6336 50.1188 46.468Z" fill="#47A348"/>
<path fill-rule="evenodd" clip-rule="evenodd" d="M50.1188 46.468C59.2289 47.6336 68.2497 49.9649 76.5603 53.911C83.1185 57.0815 89.3535 61.46 93.3514 67.6484C96.1415 71.7895 97.1707 76.914 96.924 81.8435C96.7284 85.3404 95.6439 88.922 93.2409 91.5584C91.6545 93.3132 89.5024 94.4068 87.4014 95.4283C82.7783 83.3525 75.8245 72.0862 66.6506 62.9181C64.9111 61.1972 63.1375 59.4933 61.1513 58.0522C64.2263 61.265 67.246 64.5457 69.8234 68.1825C73.0897 72.6076 75.6926 77.4608 78.1935 82.3437C83.7522 93.2242 88.1414 104.69 91.5226 116.422C94.8996 108.86 98.8252 101.511 103.665 94.7713C108.756 87.7988 114.834 81.1102 122.791 77.3887C125.496 76.4774 128.082 75.0956 130.961 74.8159C125.96 74.142 120.984 76.0027 116.773 78.5713C111.729 81.674 107.629 86.0525 104.052 90.7107C102.844 87.9132 102.989 84.6453 104.38 81.941C106.804 77.0285 111.695 73.663 116.969 72.4253C124.748 70.5391 132.931 71.7387 140.476 74.0784C139.229 74.6506 138.064 75.4093 137.103 76.3927C133.905 79.5886 131.612 83.5263 129.447 87.4555C126.9 91.8382 122.834 95.6233 117.811 96.8737C114.004 97.8443 109.968 96.9415 106.579 95.1019C99.8629 104.529 94.823 115.091 91.2589 126.074C89.9873 129.943 89.4896 134.089 87.7289 137.785C86.9931 137.425 86.2233 136.912 86.134 136.017C84.3434 123.374 81.8213 110.827 78.5677 98.4716C69.7553 99.2261 60.6792 93.8176 57.549 85.5099C54.827 78.3424 55.7669 70.5434 54.9588 63.0749C54.2528 57.3316 52.5984 51.7027 50.1188 46.468Z" fill="#47A348"/>
<path fill-rule="evenodd" clip-rule="evenodd" d="M54.9351 178.273C73.8325 171.797 92.303 158.703 124.78 163.96C157.256 169.217 179.687 126.36 167.682 105.336C162.35 98.5461 158.564 89.5966 167.682 75.282C176.204 48.2845 159.81 31.3341 144.693 23.3522C129.576 15.3702 92.7545 -1.21281 61.9028 10.4103C31.051 22.0335 18.5382 40.291 16.4917 52.9635C14.4452 65.636 22.6221 66.8752 24.0851 86.9194C25.548 106.964 5.40063 140.004 13.5931 158.183C21.7855 176.362 36.0377 184.75 54.9351 178.273Z" fill="#64FCD9"/>
<path fill-rule="evenodd" clip-rule="evenodd" d="M54.9351 178.273C73.8326 171.796 92.3031 158.702 124.78 163.959C157.256 169.216 179.687 126.36 167.682 105.335C162.35 98.5452 158.564 89.5958 167.682 75.2812C176.205 48.2837 159.81 31.3333 144.693 23.3514C129.576 15.3694 92.7545 -1.21362 61.9028 10.4095C31.051 22.0327 18.5382 40.2902 16.4917 52.9627C14.4452 65.6352 22.6221 66.8744 24.0851 86.9186C25.548 106.963 5.40063 140.003 13.5931 158.182C21.7855 176.361 36.0377 184.749 54.9351 178.273Z" fill="#64FCD9"/>
<path fill-rule="evenodd" clip-rule="evenodd" d="M19.6014 166.869C17.4428 167.65 14.5318 166.752 13.9469 164.532C12.9689 160.821 18.3591 158.924 20.3728 155.657C22.7628 151.778 19.8979 146.88 17.0827 143.299C15.0851 144.969 12.1756 146.685 10.1182 145.089C7.62687 143.157 9.72327 139.118 12.2639 137.251C16.8205 133.903 22.6479 132.33 28.2704 132.932C29.7018 122.271 35.1784 112.203 43.3508 105.209C51.5233 98.2145 62.3163 94.3586 73.0705 94.5911C71.8683 73.7394 83.9575 52.7109 102.582 43.2574C104.604 42.2312 106.768 41.3152 109.035 41.3289C111.303 41.3425 113.696 42.4966 114.557 44.5942C115.417 46.6919 114.083 49.5706 111.824 49.7622C110.772 49.8515 101.642 53.1016 102.582 52.8962C114.557 50.2776 143.22 71.1664 158.651 71.1664C160.037 71.1664 163.633 66.0577 164.607 65.3747C165.502 64.7475 167.967 64.3925 169.044 64.5776C171.852 65.0602 171.655 69.2067 170.447 71.7872C163.243 87.1788 147.104 96.8641 130.513 100.543C113.921 104.221 96.6766 102.767 79.7465 101.295C78.5752 113.403 76.9207 126.571 68.2577 135.111C60.0217 143.23 46.9945 145.015 35.8447 141.943C35.8447 140.27 35.8447 140.27 35.94 135.687C34.006 145.199 30.1177 154.309 24.5874 162.285C23.2795 164.172 21.7599 166.088 19.6014 166.869Z" fill="white"/>
<path fill-rule="evenodd" clip-rule="evenodd" d="M54.9351 178.273C73.8326 171.796 92.3031 158.702 124.78 163.959C157.256 169.216 179.687 126.36 167.682 105.335C162.35 98.5452 158.564 89.5958 167.682 75.2812C176.205 48.2837 159.81 31.3333 144.693 23.3514C129.576 15.3694 92.7545 -1.21362 61.9028 10.4095C31.051 22.0327 18.5382 40.2902 16.4917 52.9627C14.4452 65.6352 22.6221 66.8744 24.0851 86.9186C25.548 106.963 5.40063 140.003 13.5931 158.182C21.7855 176.361 36.0377 184.749 54.9351 178.273Z" fill="#64FCD9"/>
<path fill-rule="evenodd" clip-rule="evenodd" d="M54.9351 178.273C73.8326 171.796 92.3031 158.702 124.78 163.959C157.256 169.216 179.687 126.36 167.682 105.335C162.35 98.5452 158.564 89.5958 167.682 75.2812C176.205 48.2837 159.81 31.3333 144.693 23.3514C129.576 15.3694 92.7545 -1.21362 61.9028 10.4095C31.051 22.0327 18.5382 40.2902 16.4917 52.9627C14.4452 65.6352 22.6221 66.8744 24.0851 86.9186C25.548 106.963 5.40063 140.003 13.5931 158.182C21.7855 176.361 36.0377 184.749 54.9351 178.273Z" fill="#50BEFF"/>
<path fill-rule="evenodd" clip-rule="evenodd" d="M19.6014 166.869C17.4428 167.65 14.5318 166.752 13.9469 164.532C12.9689 160.821 18.3591 158.924 20.3728 155.657C22.7628 151.778 19.8979 146.88 17.0827 143.299C15.0851 144.969 12.1756 146.685 10.1182 145.089C7.62687 143.157 9.72327 139.118 12.2639 137.251C16.8205 133.903 22.6479 132.33 28.2704 132.932C29.7018 122.271 35.1784 112.203 43.3508 105.209C51.5233 98.2145 62.3163 94.3586 73.0705 94.5911C71.8683 73.7395 83.9575 52.7109 102.582 43.2574C104.604 42.2312 106.768 41.3153 109.035 41.3289C111.303 41.3425 113.696 42.4966 114.557 44.5942C115.417 46.6919 114.083 49.5707 111.824 49.7623C110.772 49.8515 101.642 53.1017 102.582 52.8962C114.557 50.2777 143.22 71.1664 158.651 71.1664C160.037 71.1664 163.633 66.0577 164.607 65.3747C165.502 64.7475 167.967 64.3925 169.044 64.5776C171.852 65.0602 171.655 69.2067 170.447 71.7872C163.243 87.1788 147.104 96.8641 130.513 100.543C113.921 104.221 96.6766 102.767 79.7465 101.295C78.5752 113.403 76.9207 126.571 68.2577 135.111C60.0217 143.23 46.9945 145.015 35.8447 141.943C35.8447 140.27 35.8447 140.27 35.94 135.688C34.006 145.199 30.1177 154.309 24.5874 162.285C23.2795 164.172 21.7599 166.088 19.6014 166.869Z" fill="white"/>
<path fill-rule="evenodd" clip-rule="evenodd" d="M100.639 53.7487C101.128 53.6684 101.571 53.341 101.79 52.8962C105.431 53.2559 109.04 53.9363 112.562 54.9269C120.533 57.1688 127.971 60.9683 135.207 64.9924C142.619 69.1139 150.946 71.5784 159.407 72.1545C159.471 72.617 159.081 73.0445 158.636 73.1881C158.192 73.3316 157.711 73.262 157.249 73.191C150.235 72.1113 143.002 70.9529 136.982 67.194C130.839 63.3583 124.313 60.1349 117.534 57.587C115.785 56.9298 114.019 56.3171 112.225 55.7961C108.451 54.7001 104.559 54.0123 100.639 53.7487Z" fill="#00160A"/>
<path fill-rule="evenodd" clip-rule="evenodd" d="M24.5874 162.285C23.2795 164.172 21.7599 166.088 19.6014 166.869C17.4428 167.65 14.5318 166.752 13.9469 164.532C12.9689 160.821 18.3591 158.924 20.3728 155.657C22.7628 151.779 19.8979 146.88 17.0827 143.299C15.0851 144.969 12.1756 146.685 10.1182 145.089C7.62687 143.157 9.72327 139.118 12.2639 137.251C16.8205 133.903 22.6479 132.33 28.2704 132.932C29.7018 122.271 35.1784 112.203 43.3509 105.209C51.5233 98.2146 62.3164 94.3587 73.0705 94.5912C71.8684 73.7396 83.9575 52.7111 102.582 43.2576C104.604 42.2314 106.768 41.3154 109.035 41.329C111.303 41.3426 113.696 42.4967 114.557 44.5944C115.417 46.692 114.083 49.5708 111.824 49.7624C103.125 50.5002 94.8629 55.3466 89.9739 62.5797C101.545 61.6888 112.493 67.3608 122.708 72.8671C126.871 75.1109 131.034 77.3547 135.197 79.5985C139.239 81.7771 143.723 84.0268 148.215 83.0763C156.522 81.3183 159.052 70.4347 166.006 65.5617C166.901 64.9345 167.967 64.3926 169.044 64.5777C171.852 65.0603 171.655 69.2068 170.447 71.7873C163.243 87.1789 147.104 96.8642 130.513 100.543C113.921 104.221 96.6766 102.767 79.7465 101.295C78.5752 113.403 76.9207 126.571 68.2578 135.111C60.0217 143.23 46.9945 145.015 35.8447 141.943C41.7761 142.38 47.7835 142.717 53.6345 141.649C59.4854 140.582 65.2432 137.97 69.0452 133.396C71.321 130.659 72.8003 127.352 74.0426 124.016C76.7284 116.804 78.4375 109.228 79.1089 101.562C77.037 101.702 74.9651 101.843 72.8932 101.983C73.4181 112.193 70.8758 122.987 63.8506 130.415C56.8253 137.842 44.7508 140.873 35.94 135.688C34.006 145.199 30.1177 154.309 24.5874 162.285ZM47.1385 137.382C50.5637 136.847 53.9123 135.825 57.0522 134.355C55.107 132.803 53.2287 131.132 51.7472 129.132C48.5925 124.874 47.3973 119.354 43.9613 115.319C39.8349 121.041 37.1303 127.781 36.156 134.768C36.134 134.925 36.116 135.098 36.2011 135.232C36.2895 135.372 36.4621 135.427 36.6208 135.472C39.2465 136.217 41.9153 136.81 44.6093 137.247C43.115 135.621 41.6097 133.981 40.473 132.088C39.3363 130.196 38.5803 128.007 38.7283 125.804C40.1284 129.471 42.1308 132.907 44.6308 135.933C45.2757 136.713 46.1381 137.538 47.1385 137.382ZM171.086 68.6276C171.862 66.7129 169.218 64.8846 167.244 65.4943C165.27 66.1039 164.047 68.0119 162.897 69.7276C156.444 79.3496 147.041 86.9635 136.288 91.2734C119.724 97.9118 101.216 96.5895 83.3864 95.862C75.0033 95.5199 66.4478 95.3534 58.4082 97.753C46.7026 101.247 36.8152 110.364 32.3852 121.748C29.8274 128.321 29.0404 135.429 27.2908 142.262C25.5411 149.094 22.5536 156.019 16.8587 160.179C15.8256 160.934 14.628 161.71 14.3408 162.957C13.9137 164.81 15.976 166.493 17.8742 166.371C19.7723 166.249 21.3654 164.925 22.668 163.539C35.9098 149.45 32.8713 125.085 46.5412 111.41C52.9868 104.963 62.2417 102.027 71.323 101.222C80.4042 100.417 89.5301 101.515 98.6355 101.972C112.82 102.685 127.344 101.783 140.594 96.6689C153.844 91.5547 165.755 81.7914 171.086 68.6276ZM85.3885 72.5224C85.0959 72.7004 84.9207 73.0165 84.7624 73.3202C81.4177 79.7361 79.7639 87.0241 80.0118 94.2553C79.653 94.2383 79.5125 93.7871 79.475 93.4298C78.5918 85.0082 82.0927 76.814 85.5172 69.0695C86.5545 66.7235 87.5995 64.3636 89.0308 62.2349C91.6976 58.2688 95.5771 55.2894 99.5286 52.6009C100.844 51.706 102.194 50.8255 103.701 50.3155C104.704 49.9762 105.755 49.8083 106.8 49.6418C108.101 49.4345 109.403 49.2272 110.704 49.0199C112.056 48.8047 113.603 48.4527 114.22 47.2307C115.085 45.5145 113.342 43.5157 111.491 42.9977C109.157 42.3444 106.669 43.0135 104.385 43.8268C100.886 45.073 97.4895 46.6781 94.4936 48.8749C92.1029 50.628 89.9925 52.7388 88.0558 54.9834C78.9205 65.5715 73.609 79.3905 73.3008 93.3714C73.2938 93.6902 73.2926 94.0238 73.4384 94.3073C73.7878 94.9866 74.728 95.0217 75.4903 94.9738C80.9321 94.6321 86.4084 94.8415 91.8082 95.5977C89.1715 93.1099 86.491 90.5903 83.2804 88.907C82.2639 88.374 81.1334 87.8678 80.5735 86.8659C82.7807 87.222 84.8894 88.1712 86.6194 89.5876C88.0131 90.7285 89.1503 92.152 90.5062 93.3377C91.862 94.5235 93.5454 95.4944 95.3457 95.4378C100.393 95.2792 105.449 95.37 110.488 95.7099C106.468 93.0347 103.154 89.4493 99.518 86.2713C95.8823 83.0933 91.7143 80.2289 86.9444 79.4766C85.6131 79.2666 83.9384 78.9727 83.6049 77.6668C88.641 77.9353 93.3621 80.2858 97.4318 83.2643C101.501 86.2429 105.052 89.8626 108.885 93.1411C110.253 94.3118 111.876 95.5075 113.664 95.2928C119.266 94.62 124.911 93.9379 130.272 92.1791C117.23 87.5434 106.931 76.4424 93.4236 73.4213C91.1894 72.9216 88.9104 72.6564 86.6364 72.392C86.2128 72.3428 85.7529 72.3009 85.3885 72.5224ZM136.763 81.3797C135.277 80.6594 133.791 79.9391 132.305 79.2189C130.183 78.1901 128.06 77.1611 125.969 76.0711C121.098 73.5328 116.4 70.6649 111.442 68.3021C106.484 65.9393 101.202 64.0743 95.7224 63.7072C94.3285 63.6138 92.9122 63.6153 91.5661 63.2419C90.7238 63.0083 89.8075 63.4009 89.1865 64.016C88.5654 64.631 88.181 65.4395 87.8088 66.2303C86.979 67.9934 86.1493 69.7565 85.3195 71.5196C91.7134 70.9228 98.0029 73.3168 103.75 76.1828C109.193 78.8979 114.398 82.0717 119.461 85.4436C121.759 86.9739 124.046 88.555 126.573 89.6657C129.101 90.7764 131.922 91.3985 134.639 90.9075C139.295 90.066 142.807 86.1978 147.233 84.5261C143.553 84.629 140.076 82.9857 136.763 81.3797ZM52.7511 107.99C54.1434 111.432 56.1172 114.668 58.7569 117.28C61.3966 119.891 64.7232 121.857 68.3549 122.63C69.2006 119.535 70.0099 116.431 70.7825 113.318C70.8558 113.023 70.8882 112.631 70.6172 112.493C66.7365 110.52 63.244 107.786 60.3961 104.493C60.4205 104.151 60.8312 103.947 61.168 104.011C61.5048 104.075 61.7746 104.319 62.024 104.554C64.8011 107.175 67.5328 110.029 71.0772 111.449C71.882 108.805 72.4299 106.083 72.7106 103.333C72.7622 102.827 72.6378 102.121 72.1292 102.119C62.0979 102.082 52.1172 106.258 45.1024 113.429C44.616 113.926 44.5874 114.735 44.8324 115.386C45.0775 116.037 45.5458 116.574 45.9787 117.118C48.089 119.772 49.5191 122.887 51.1863 125.84C52.8536 128.792 54.8578 131.686 57.7329 133.483C58.0293 133.668 58.3578 133.847 58.7063 133.82C58.9928 133.798 59.2488 133.64 59.4892 133.483C62.918 131.235 65.7831 128.134 67.7534 124.538C67.9671 124.148 68.0651 123.498 67.6307 123.404C64.9942 122.832 62.4909 121.655 60.3686 119.989C58.7293 118.703 57.329 117.142 55.9379 115.591C55.087 114.642 54.2306 113.685 53.5736 112.593C52.7833 111.279 52.298 109.783 52.1665 108.255C52.3614 108.167 52.5563 108.078 52.7511 107.99ZM11.5387 144.928C12.9626 145.224 14.3153 144.258 15.4239 143.317C16.7099 142.225 17.9698 141.081 19.4312 140.239C20.8927 139.397 22.6028 138.869 24.2691 139.132C24.8346 139.221 25.3956 139.4 25.9666 139.357C26.5376 139.315 27.1443 138.967 27.2431 138.403C27.4776 137.063 27.6625 135.715 27.7971 134.362C27.8163 134.169 27.8274 133.952 27.7005 133.805C27.5778 133.663 27.3702 133.639 27.1829 133.627C21.2346 133.243 15.1644 135.566 10.9918 139.823C10.3592 140.468 9.74427 141.204 9.59701 142.096C9.39099 143.343 10.301 144.671 11.5387 144.928ZM23.5402 140.992C24.3394 141.914 25.1387 142.835 25.9379 143.757C26.1481 142.626 26.4807 141.518 26.9281 140.458C24.543 139.455 21.6529 139.764 19.533 141.247C19.0717 141.57 18.6475 141.942 18.2243 142.313C18.0563 142.461 17.8815 142.618 17.8101 142.83C17.7387 143.041 17.8166 143.321 18.0287 143.391C18.8173 143.653 19.3768 144.347 19.8279 145.045C21.3083 147.335 22.1204 150.052 22.1398 152.779C23.2744 150.392 24.409 148.005 25.5436 145.618C25.0931 145.492 24.9773 144.925 24.8645 144.471C24.464 142.86 23.1716 141.648 21.9399 140.534C22.1322 140.277 22.5222 140.245 22.8161 140.373C23.11 140.501 23.3302 140.75 23.5402 140.992Z" fill="#00160A"/>
</svg>
